<svg xmlns="http://www.w3.org/2000/svg" width="215" height="30" viewBox="0 0 215 30">
  <g id="Group_3205" data-name="Group 3205" transform="translate(-175.964 -487.942)">
    <path id="Path_1" data-name="Path 1" d="M281.2,517.137v19.315H276.9v-2.46a7.893,7.893,0,0,1-6.222,2.711c-4.957,0-8.316-2.711-8.316-8.535V517.137h4.52v10.42c0,3.512,1.667,5.173,4.52,5.173,3.148,0,5.282-1.955,5.282-5.824v-9.768Z" transform="translate(-60.9 -21.214)" fill="#3666af"/>
    <path id="Path_2" data-name="Path 2" d="M351.8,524.6a7.237,7.237,0,0,1-4.34,1.265c-4.234,0-6.654-2.18-6.654-6.338v-9.052h-3.181v-3.521H340.8v-4.3h4.52v4.3H350.5v3.522h-5.173v8.945c0,1.831.941,2.818,2.678,2.818a4.138,4.138,0,0,0,2.532-.774Z" transform="translate(-113.967 -10.373)" fill="#3666af"/>
    <path id="Path_3" data-name="Path 3" d="M396.187,490.6a2.726,2.726,0,0,1,2.8-2.652c.033,0,.067,0,.1,0a2.675,2.675,0,0,1,2.889,2.425c0,.04.005.08.007.119a2.9,2.9,0,0,1-5.791.1m.616,5.764h4.52v18.877H396.8Z" transform="translate(-155.255 0)" fill="#3666af"/>
    <rect id="Rectangle_3" data-name="Rectangle 3" width="4.52" height="26.203" transform="translate(251.996 489.036)" fill="#3666af"/>
    <path id="Path_4" data-name="Path 4" d="M482.657,524.586V535.91h-4.268v-2.354c-1.084,1.667-3.181,2.6-6.076,2.6-4.413,0-7.2-2.425-7.2-5.785,0-3.22,2.167-5.752,8.033-5.752h4.99v-.291c0-2.637-1.591-4.195-4.811-4.195a9.551,9.551,0,0,0-5.859,1.918l-1.776-3.293a13.588,13.588,0,0,1,8.176-2.386c5.567,0,8.787,2.643,8.787,8.21m-4.52,5.282v-2.24h-4.671c-3.075,0-3.909,1.159-3.909,2.564,0,1.63,1.372,2.678,3.691,2.678a4.92,4.92,0,0,0,4.884-3" transform="translate(-203.851 -20.672)" fill="#3666af"/>
    <path id="Path_5" data-name="Path 5" d="M537.06,534.333l1.445-2.751a12.313,12.313,0,0,0,6.726,1.988c3.22,0,4.559-.974,4.559-2.6,0-4.307-12.119-.577-12.119-8.21,0-3.438,3.074-5.752,7.991-5.752a13.957,13.957,0,0,1,6.984,1.736l-1.484,2.751a10.012,10.012,0,0,0-5.533-1.518c-3.043,0-4.52,1.12-4.52,2.637,0,4.52,12.153.834,12.153,8.283,0,3.472-3.181,5.679-8.284,5.679a13.78,13.78,0,0,1-7.919-2.24" transform="translate(-254.57 -21.119)" fill="#031038"/>
    <path id="Path_6" data-name="Path 6" d="M600.658,526.771c0-5.712,4.234-9.767,9.986-9.767s9.946,4.049,9.946,9.767a9.535,9.535,0,0,1-9.946,9.8c-5.751,0-9.986-4.084-9.986-9.8m16.427,0c0-4.085-2.751-6.726-6.44-6.726s-6.474,2.643-6.474,6.726,2.784,6.765,6.474,6.765,6.44-2.678,6.44-6.765" transform="translate(-299.407 -21.121)" fill="#031038"/>
    <path id="Path_7" data-name="Path 7" d="M681.837,496.974V498.6h5.572v2.789h-5.5v15.932h-3.472V501.388h-3.251V498.6h3.251v-1.664c0-3.637,2.239-6.037,6.329-6.037a6.63,6.63,0,0,1,3.909,1.094l-1.047,2.576a4.56,4.56,0,0,0-2.678-.881c-2.06,0-3.114,1.132-3.114,3.287" transform="translate(-351.946 -2.081)" fill="#031038"/>
    <path id="Path_8" data-name="Path 8" d="M731.309,523.492h-2.847c-.083.006-.167.006-.25.006a1.679,1.679,0,0,1-.173-.006c-1.809-.059-2.828-1.184-2.828-3.123v-10.1H730.7v-2.779H725.21V503.4h-3.473v4.086h-3.251v2.779h3.251V520.51c0,3.766,2.207,5.841,6.077,5.841.052,0,.1,0,.157-.006a6.535,6.535,0,0,0,4.038-1.3Z" transform="translate(-382.474 -10.896)" fill="#031038"/>
    <path id="Path_9" data-name="Path 9" d="M199.734,552.524l12.371,6.639v-4.491a3.942,3.942,0,0,0-2.089-3.483L199.4,545.52c-1.681,1.334-3.084,3.741.333,7" transform="translate(-15.274 -41.221)" fill="#3abfea"/>
    <path id="Path_10" data-name="Path 10" d="M177.93,509.264l-1.966,1.059v4.895l8.49,4.549c-3.422-3.265-2.008-5.673-.333-7l.669-.358,9.944-5.31a3.949,3.949,0,0,0,2.089-3.483v-4.56Z" transform="translate(0 -7.832)" fill="#3666af"/>
    <path id="Path_11" data-name="Path 11" d="M846.407,552.524l-12.371,6.639v-4.491a3.942,3.942,0,0,1,2.089-3.483l10.618-5.669c1.68,1.334,3.084,3.741-.333,7" transform="translate(-463.937 -41.221)" fill="#3bbfe9"/>
    <path id="Path_12" data-name="Path 12" d="M846.07,512.421l-9.946-5.309a3.949,3.949,0,0,1-2.089-3.483V499.07l18.9,10.2-8.468,2.291a9.065,9.065,0,0,1,1.607.857" transform="translate(-463.937 -7.844)" fill="#3769b1"/>
    <path id="Path_13" data-name="Path 13" d="M870.992,536.8a9.333,9.333,0,0,0-1.6-.857l8.467-2.29,1.966,1.058V539.6l-8.49,4.553c3.422-3.265,2.008-5.674.333-7Z" transform="translate(-488.859 -32.645)" fill="#3769b1"/>
    <rect id="Rectangle_4" data-name="Rectangle 4" width="12.192" height="4.368" transform="translate(353.756 511.123)" fill="#031038"/>
    <rect id="Rectangle_5" data-name="Rectangle 5" width="4.038" height="2.935" transform="translate(345.491 512.518)" fill="#031038"/>
  </g>
</svg>
