<svg xmlns="http://www.w3.org/2000/svg" width="161.732" height="56.298" viewBox="0 0 161.732 56.298">
  <g id="Group_2734" data-name="Group 2734" transform="translate(-682 -511.838)">
    <g id="Group_2722" data-name="Group 2722" transform="translate(697.966 511.838)">
      <g id="Group_2710" data-name="Group 2710" transform="translate(10.436 5.043)">
        <g id="Group_2709" data-name="Group 2709">
          <g id="Group_2708" data-name="Group 2708" transform="translate(3.158 14.625)">
            <path id="Path_5264" data-name="Path 5264" d="M902.258,676.046h10.164l-1.77-17.092a2,2,0,0,0-2.309-1.661l-5.822.671-.08.011a2.04,2.04,0,0,0-1.834,2.137Z" transform="translate(-900.598 -657.278)" fill="#051881"/>
            <path id="Path_5265" data-name="Path 5265" d="M909.078,681.381h8.307l-.517-4.986-.968-9.35-.275-2.65a1.131,1.131,0,0,0-1.306-.939l-5.821.67a1.163,1.163,0,0,0-1.083,1.215l.292,2.82Z" transform="translate(-906.49 -662.613)" fill="#06f94a"/>
            <path id="Path_5266" data-name="Path 5266" d="M977.685,764.183h.185l-.517-4.986.358,4.2A3.361,3.361,0,0,1,977.685,764.183Z" transform="translate(-966.974 -745.415)" fill="#ff98a0"/>
            <path id="Path_5267" data-name="Path 5267" d="M914.577,704.391a4.918,4.918,0,0,1,4.192-4.986l-.968-9.35-8.193,1.116,1.37,13.22Z" transform="translate(-908.39 -685.623)" fill="#068e26"/>
            <path id="Path_5268" data-name="Path 5268" d="M909.418,669.273a2.541,2.541,0,0,0,2.285-2.662L911,659.778a2.228,2.228,0,0,0-.944-1.589,2.755,2.755,0,0,0-1.932-.48l-4.784.551-.1.013a2.541,2.541,0,0,0-2.284,2.662l.708,6.833a2.229,2.229,0,0,0,.944,1.588,2.754,2.754,0,0,0,1.932.48l4.784-.551Z" transform="translate(-900.893 -657.634)" fill="#051881"/>
            <path id="Path_5269" data-name="Path 5269" d="M908.469,673a1.623,1.623,0,0,0,1.873,1.347l3.574-.412,1.209-.14a1.668,1.668,0,0,0,1.553-1.742l-.708-6.834a1.623,1.623,0,0,0-1.873-1.347l-4.784.551a1.668,1.668,0,0,0-1.552,1.742l.1.946Z" transform="translate(-906.786 -662.969)" fill="#a53ef6"/>
            <path id="Path_5270" data-name="Path 5270" d="M909.144,693.8a1.623,1.623,0,0,0,1.873,1.347l3.574-.412-3.561.129a1.726,1.726,0,0,1-1.21-.439h0a1.811,1.811,0,0,1-.589-1.121l-.7-5.392Z" transform="translate(-907.461 -683.766)" fill="#bb5df9"/>
            <path id="Path_5271" data-name="Path 5271" d="M907.859,667.111a5.155,5.155,0,0,1,5.76,4.524l.3,2.3,1.209-.14a1.668,1.668,0,0,0,1.553-1.742l-.708-6.834a1.623,1.623,0,0,0-1.873-1.347l-4.784.551a1.668,1.668,0,0,0-1.552,1.742Z" transform="translate(-906.786 -662.969)" fill="#ffbd36"/>
          </g>
          <path id="Path_5272" data-name="Path 5272" d="M877.245,556.937l.2,1.974,1.247-1.191.036-.033a8.839,8.839,0,0,1,.98-.365l.1-.025.045-.022a22,22,0,0,1,4.685-1.071,19.193,19.193,0,0,1,5.643.134l.03.012.09.013.179.059.046-.005,1.2.308-.149-1.439-.033-.039c-.083-.1-.167-.193-.249-.287-3.85-4.4-6.937-5.582-7.068-5.631l-.538-.2-.484.318c-.118.078-2.89,1.937-5.748,7.108-.061.11-.123.223-.184.337Z" transform="translate(-877.245 -549.128)" fill="#051881"/>
          <path id="Path_5273" data-name="Path 5273" d="M969.624,593.527c.129.018.247.036.353.053.163.026.3.051.4.072l.069.013.009,0c.036.006.067.014.091.019h.005l.053.012.031.008q-.27-.316-.536-.61A1.674,1.674,0,0,1,969.624,593.527Z" transform="translate(-957.132 -587.152)" fill="#fea102"/>
          <path id="Path_5274" data-name="Path 5274" d="M883.809,562.7v0a8.46,8.46,0,0,1,1.307-.5l.008,0a22.393,22.393,0,0,1,10.288-1.128,1.677,1.677,0,0,0,.477-.429l-.046-.052c-.065-.071-.128-.141-.192-.211-3.509-3.813-6.2-4.814-6.2-4.814h0C889.395,555.6,886.639,557.443,883.809,562.7Z" transform="translate(-882.921 -554.69)" fill="#ffbd36"/>
          <path id="Path_5275" data-name="Path 5275" d="M889.922,601.586a2.1,2.1,0,0,0,1.247-.655l1.347-1.484a1.724,1.724,0,0,0,.457-1.329l-.568-5.481a1.826,1.826,0,0,0-1.859-1.556,36.144,36.144,0,0,0-5.378.387l-.105.016-.034,0c-.21.016-1.227.1-2.551.295-1.035.155-2,.343-2.879.559a1.882,1.882,0,0,0-1.5,1.943l.568,5.481a1.681,1.681,0,0,0,.719,1.194l1.618,1.141a2.056,2.056,0,0,0,1.426.348l7.417-.854Z" transform="translate(-877.978 -585.407)" fill="#051881"/>
          <path id="Path_5276" data-name="Path 5276" d="M885.558,604.907a.959.959,0,0,0,.412.684l1.592,1.123a1.186,1.186,0,0,0,.818.2l7.292-.84a1.212,1.212,0,0,0,.757-.382l1.325-1.459a.982.982,0,0,0,.262-.762l-.043-.412-.515-4.976a1.042,1.042,0,0,0-1.064-.892,34.609,34.609,0,0,0-5.241.386c-.034.005-.065.009-.1.012-.112.009-.409.032-.836.077a33.817,33.817,0,0,0-4.361.739,1.074,1.074,0,0,0-.857,1.114Z" transform="translate(-883.947 -590.691)" fill="#f15a29"/>
        </g>
        <path id="Path_5277" data-name="Path 5277" d="M921.273,757.707c0,.034.007.059.01.089l.022.171.043.343q.177,1.372.4,2.739c.005.033.012.066.017.1h.311c0-.047-.008-.095-.012-.142q-.133-1.379-.312-2.751l-.046-.343-.023-.171c0-.027-.009-.06-.01-.083l-.006-.074,0-.037c0-.012,0-.025,0-.037v-.075c0-.05.009-.1.014-.149a1.439,1.439,0,0,1,.08-.287,1.308,1.308,0,0,1,.336-.489,1.333,1.333,0,0,1,.518-.291c.05-.01.1-.023.149-.033l.166-.029.333-.06.664-.125c.442-.089.885-.177,1.325-.283-.452.015-.9.049-1.351.082l-.673.057-.336.031-.168.016c-.057.006-.122.018-.183.027a1.592,1.592,0,0,0-.674.329,1.627,1.627,0,0,0-.459.613,1.709,1.709,0,0,0-.114.374c-.008.065-.019.13-.023.2l0,.1c0,.016,0,.033,0,.049l0,.049Z" transform="translate(-915.31 -727.755)" fill="#051881"/>
      </g>
      <g id="Group_2713" data-name="Group 2713" transform="translate(33.66 5.017)">
        <g id="Group_2712" data-name="Group 2712">
          <g id="Group_2711" data-name="Group 2711" transform="translate(0.352 14.701)">
            <path id="Path_5278" data-name="Path 5278" d="M1061.739,676.369l1.406-16.015a2.038,2.038,0,0,0-1.867-2.107l-.08-.009-5.832-.575a2.005,2.005,0,0,0-2.282,1.7l-1.493,17.008Z" transform="translate(-1051.591 -657.651)" fill="#051881"/>
            <path id="Path_5279" data-name="Path 5279" d="M1066.739,681.7l1.166-13.281.248-2.824a1.162,1.162,0,0,0-1.1-1.2l-5.831-.575a1.133,1.133,0,0,0-1.291.961l-.233,2.654-.821,9.365-.43,4.9Z" transform="translate(-1057.518 -662.982)" fill="#06f94a"/>
            <path id="Path_5280" data-name="Path 5280" d="M1058.875,759.847l-.43,4.9h.164a3.356,3.356,0,0,1-.026-.7Z" transform="translate(-1057.518 -746.027)" fill="#ff98a0"/>
            <path id="Path_5281" data-name="Path 5281" d="M1065.894,704.859h3.595l1.166-13.281-8.209-.981-.821,9.365A4.912,4.912,0,0,1,1065.894,704.859Z" transform="translate(-1060.268 -686.141)" fill="#068e26"/>
            <path id="Path_5282" data-name="Path 5282" d="M1060.156,669.606a2.539,2.539,0,0,1-2.326-2.624l.6-6.845a2.231,2.231,0,0,1,.92-1.6,2.757,2.757,0,0,1,1.924-.512l4.792.472.1.012a2.538,2.538,0,0,1,2.326,2.624l-.6,6.844a2.231,2.231,0,0,1-.919,1.6,2.755,2.755,0,0,1-1.924.512l-4.792-.472Z" transform="translate(-1056.979 -657.959)" fill="#051881"/>
            <path id="Path_5283" data-name="Path 5283" d="M1072.866,673.215a1.624,1.624,0,0,1-1.852,1.378l-3.58-.353-1.211-.12a1.666,1.666,0,0,1-1.58-1.716l.6-6.845a1.625,1.625,0,0,1,1.852-1.378l4.792.472a1.666,1.666,0,0,1,1.579,1.716l-.083.947Z" transform="translate(-1062.873 -663.291)" fill="#a53ef6"/>
            <path id="Path_5284" data-name="Path 5284" d="M1090.751,693.33a1.624,1.624,0,0,1-1.852,1.378l-3.581-.353,3.563.07a1.726,1.726,0,0,0,1.2-.458h0a1.814,1.814,0,0,0,.571-1.131l.614-5.4Z" transform="translate(-1080.758 -683.406)" fill="#bb5df9"/>
            <path id="Path_5285" data-name="Path 5285" d="M1073.384,667.318a5.16,5.16,0,0,0-5.688,4.618l-.262,2.3-1.211-.12a1.666,1.666,0,0,1-1.58-1.716l.6-6.845a1.625,1.625,0,0,1,1.852-1.378l4.792.472a1.666,1.666,0,0,1,1.579,1.716Z" transform="translate(-1062.873 -663.291)" fill="#f15a29"/>
          </g>
          <path id="Path_5286" data-name="Path 5286" d="M1066.739,556.642l-.174,1.978-1.266-1.17-.036-.032a8.854,8.854,0,0,0-.986-.348l-.1-.023-.046-.022a21.98,21.98,0,0,0-4.7-.994,19.193,19.193,0,0,0-5.64.227l-.029.013-.089.014-.178.062-.046,0-1.191.328.126-1.441.033-.04c.081-.1.163-.2.244-.291,3.78-4.461,6.848-5.7,6.979-5.747l.534-.209.489.31c.12.076,2.92,1.889,5.859,7.012.063.109.127.221.189.334Z" transform="translate(-1051.817 -548.94)" fill="#051881"/>
          <path id="Path_5287" data-name="Path 5287" d="M1060.344,594.121c-.129.02-.246.04-.352.059-.162.029-.3.056-.4.078l-.068.014-.01,0c-.036.007-.066.015-.091.021h-.005l-.053.013-.031.008q.265-.321.526-.619A1.676,1.676,0,0,0,1060.344,594.121Z" transform="translate(-1057.935 -587.647)" fill="#fea102"/>
          <path id="Path_5288" data-name="Path 5288" d="M1075.335,562.425v0a8.463,8.463,0,0,0-1.315-.482l-.008,0a22.388,22.388,0,0,0-10.3-.958,1.672,1.672,0,0,1-.484-.421l.045-.052.189-.214c3.449-3.87,6.123-4.915,6.123-4.915h0C1069.639,555.42,1072.424,557.219,1075.335,562.425Z" transform="translate(-1061.298 -554.511)" fill="#ffbd36"/>
          <path id="Path_5289" data-name="Path 5289" d="M1052.1,602.07a2.1,2.1,0,0,1-1.257-.634l-1.37-1.461a1.723,1.723,0,0,1-.477-1.321l.482-5.49a1.828,1.828,0,0,1,1.834-1.586,36.164,36.164,0,0,1,5.384.3l.105.014.034,0c.21.012,1.229.076,2.556.253,1.037.138,2.009.31,2.888.512a1.88,1.88,0,0,1,1.527,1.918l-.482,5.49a1.683,1.683,0,0,1-.7,1.206l-1.6,1.168a2.059,2.059,0,0,1-1.42.371l-7.429-.732Z" transform="translate(-1048.987 -585.803)" fill="#051881"/>
          <path id="Path_5290" data-name="Path 5290" d="M1068.351,605.21a.96.96,0,0,1-.4.691l-1.574,1.149a1.187,1.187,0,0,1-.814.213l-7.3-.72a1.212,1.212,0,0,1-.763-.369l-1.347-1.437a.982.982,0,0,1-.274-.758l.036-.412.437-4.984a1.043,1.043,0,0,1,1.05-.909,34.614,34.614,0,0,1,5.247.3c.034,0,.065.008.1.01.112.007.41.025.837.063a33.774,33.774,0,0,1,4.372.667,1.073,1.073,0,0,1,.874,1.1Z" transform="translate(-1054.939 -591.075)" fill="#f15a29"/>
        </g>
        <path id="Path_5291" data-name="Path 5291" d="M1090.181,756.275l.333.055.167.027c.054.01.1.021.15.031a1.325,1.325,0,0,1,.522.283,1.307,1.307,0,0,1,.344.483,1.439,1.439,0,0,1,.085.286c.005.05.014.1.016.148l0,.074c0,.013,0,.025,0,.037l0,.037-.005.074c0,.024-.006.056-.009.083l-.02.172-.04.344q-.157,1.375-.269,2.755c0,.055-.007.111-.012.166h.308c.006-.043.014-.086.02-.129q.2-1.37.355-2.745l.038-.344.019-.172c0-.03.007-.055.009-.089l.006-.1,0-.049c0-.016,0-.033,0-.049l0-.1c0-.065-.017-.13-.026-.195a1.709,1.709,0,0,0-.12-.372,1.624,1.624,0,0,0-.468-.605,1.592,1.592,0,0,0-.68-.318c-.061-.009-.125-.019-.183-.025l-.168-.013-.337-.026-.674-.046c-.45-.025-.9-.052-1.352-.059.442.1.885.179,1.329.261Z" transform="translate(-1082.885 -727.913)" fill="#051881"/>
      </g>
      <g id="Group_2716" data-name="Group 2716" transform="translate(0 0)">
        <g id="Group_2715" data-name="Group 2715">
          <g id="Group_2714" data-name="Group 2714" transform="translate(3.493 18.358)">
            <path id="Path_5292" data-name="Path 5292" d="M827.061,667.675H839.6L838.392,649.8a2.5,2.5,0,0,0-2.686-2.2l-.1,0-7.239.472a2.507,2.507,0,0,0-2.465,2.536Z" transform="translate(-825.898 -647.598)" fill="#051881"/>
            <path id="Path_5293" data-name="Path 5293" d="M835.362,672.031l.151,2.232h10.253l-.97-14.3-.238-3.5a1.425,1.425,0,0,0-1.576-1.242l-7.238.473a1.416,1.416,0,0,0-1.394,1.434l.223,3.292Z" transform="translate(-833.205 -654.185)" fill="#06f94a"/>
            <path id="Path_5294" data-name="Path 5294" d="M830.107,662.679a3.112,3.112,0,0,1-3.345-2.738l-.577-8.488a2.787,2.787,0,0,1,.817-2.146,3.438,3.438,0,0,1,2.254-1.014l5.948-.388.125-.006a3.112,3.112,0,0,1,3.346,2.739l.576,8.488a2.787,2.787,0,0,1-.816,2.146,3.437,3.437,0,0,1-2.254,1.014l-5.948.388Z" transform="translate(-826.141 -647.857)" fill="#051881"/>
            <path id="Path_5295" data-name="Path 5295" d="M845.419,665.788a2.031,2.031,0,0,1-2,2.058l-4.445.29-1.5.1a2.043,2.043,0,0,1-2.26-1.779l-.576-8.488a2.031,2.031,0,0,1,2-2.057l5.949-.388a2.043,2.043,0,0,1,2.259,1.78l.08,1.175Z" transform="translate(-833.45 -654.445)" fill="#f15a29"/>
          </g>
          <path id="Path_5296" data-name="Path 5296" d="M817.886,519.93l.166,2.452-1.771-1.176-.05-.032a10.837,10.837,0,0,0-1.272-.227l-.124-.009-.06-.017a27.161,27.161,0,0,0-5.937-.267,23.847,23.847,0,0,0-6.851,1.414l-.034.021-.107.035-.206.111-.057,0-1.393.641-.121-1.787.032-.056c.08-.137.162-.272.243-.4,3.767-6.215,7.281-8.343,7.431-8.431l.613-.363.657.28c.161.068,3.931,1.721,8.5,7.391.1.121.2.245.3.37Z" transform="translate(-800.07 -511.838)" fill="#051881"/>
          <path id="Path_5297" data-name="Path 5297" d="M809.315,576.558c-.154.051-.293.1-.419.143-.192.068-.351.128-.473.176l-.081.031-.011.005c-.042.015-.078.031-.107.044l-.006,0-.062.026-.036.016q.263-.446.524-.862A2.048,2.048,0,0,0,809.315,576.558Z" transform="translate(-807.031 -567.445)" fill="#fea102"/>
          <path id="Path_5298" data-name="Path 5298" d="M827.159,527.276v0a10.422,10.422,0,0,0-1.7-.324h-.01a27.723,27.723,0,0,0-12.78.906,2.049,2.049,0,0,1-.672-.417c.015-.025.03-.048.045-.073.064-.1.126-.2.19-.3,3.475-5.426,6.544-7.243,6.544-7.243h0C818.854,519.862,822.6,521.5,827.159,527.276Z" transform="translate(-810.383 -518.747)" fill="#f15a29"/>
          <path id="Path_5299" data-name="Path 5299" d="M805.739,579.605a2.58,2.58,0,0,1-1.658-.522l-1.955-1.51a2.114,2.114,0,0,1-.837-1.519l-.462-6.808a2.287,2.287,0,0,1,1.939-2.308,44.77,44.77,0,0,1,6.638-.72l.132,0,.042,0c.259-.028,1.516-.154,3.172-.206,1.295-.041,2.516-.026,3.628.044a2.3,2.3,0,0,1,2.234,2.036l.462,6.808a2.1,2.1,0,0,1-.625,1.615l-1.733,1.75a2.566,2.566,0,0,1-1.665.74l-9.222.6Z" transform="translate(-800.721 -558.662)" fill="#051881"/>
          <path id="Path_5300" data-name="Path 5300" d="M825.306,581.423a1.2,1.2,0,0,1-.358.926l-1.7,1.722a1.479,1.479,0,0,1-.955.424l-9.066.592a1.489,1.489,0,0,1-1-.3L810.3,583.3a1.2,1.2,0,0,1-.48-.871l-.035-.511-.419-6.181a1.3,1.3,0,0,1,1.109-1.323,42.873,42.873,0,0,1,6.471-.691c.042,0,.081,0,.122-.007.138-.015.506-.052,1.035-.092a41.787,41.787,0,0,1,5.473-.065,1.315,1.315,0,0,1,1.279,1.168Z" transform="translate(-808.105 -565.162)" fill="#ffbd36"/>
        </g>
      </g>
      <g id="Group_2718" data-name="Group 2718" transform="translate(15.135 22.354)">
        <path id="Path_5301" data-name="Path 5301" d="M913.054,693.227H939.68c.179-4.763.509-11.347,1.044-14.8a1.124,1.124,0,0,0-.244-.892,1.071,1.071,0,0,0-.824-.39h-2.848a1.1,1.1,0,0,0-1.082,1.107v3.394h-.785v-1.876a1.1,1.1,0,0,0-1.082-1.107h-3.021a1.1,1.1,0,0,0-1.082,1.107v2.787h-1.437v-2.787a1.1,1.1,0,0,0-1.082-1.107H925.5a1.1,1.1,0,0,0-1.082,1.107v2.787h-1.437v-2.787a1.1,1.1,0,0,0-1.082-1.107h-3.021a1.1,1.1,0,0,0-1.082,1.107v1.876h-.785v-3.394a1.1,1.1,0,0,0-1.082-1.107h-2.848a1.071,1.071,0,0,0-.824.39,1.123,1.123,0,0,0-.244.891C912.544,681.88,912.874,688.463,913.054,693.227Z" transform="translate(-911.996 -677.145)" fill="#051881"/>
        <path id="Path_5302" data-name="Path 5302" d="M919.272,698.8h25c.18-4.8.512-11.426,1.056-14.937a.236.236,0,0,0-.231-.273h-2.848a.235.235,0,0,0-.233.236v4.029a.235.235,0,0,1-.233.236h-2.016a.232.232,0,0,1-.069-.011.235.235,0,0,1-.165-.226v-2.51a.238.238,0,0,0-.142-.218l-.022-.007a.2.2,0,0,0-.068-.011h-3.022a.235.235,0,0,0-.233.237v3.421a.235.235,0,0,1-.233.236h-2.667a.236.236,0,0,1-.235-.236V685.34a.238.238,0,0,0-.142-.218l-.022-.007a.206.206,0,0,0-.068-.011h-1.742a.235.235,0,0,0-.233.237v3.421a.235.235,0,0,1-.234.236H927.8a.235.235,0,0,1-.233-.236V685.34a.235.235,0,0,0-.233-.237h-3.021a.235.235,0,0,0-.233.237v2.51a.235.235,0,0,1-.233.236H921.83a.235.235,0,0,1-.233-.236v-4.029a.235.235,0,0,0-.233-.236h-2.838a.245.245,0,0,0-.24.273l.02.194C918.669,687.744,919.039,694.137,919.272,698.8Z" transform="translate(-917.434 -682.714)" fill="#ffbd36"/>
        <path id="Path_5303" data-name="Path 5303" d="M987.427,764.53V759.6H976.949l-.433,4.932Z" transform="translate(-967.792 -748.448)" fill="#06f94a"/>
        <g id="Group_2717" data-name="Group 2717" transform="translate(7.568 9.21)">
          <path id="Path_5304" data-name="Path 5304" d="M971.065,752.126v-3.961a.1.1,0,0,1,.022-.066h7.164a.1.1,0,0,1,.022.066v3.961h3.1v-5.38a1.524,1.524,0,0,0-1.551-1.492h-10.31a1.524,1.524,0,0,0-1.551,1.492v5.38Z" transform="translate(-967.962 -745.255)" fill="#051881"/>
        </g>
      </g>
      <g id="Group_2721" data-name="Group 2721" transform="translate(40.891 0.007)">
        <g id="Group_2720" data-name="Group 2720">
          <g id="Group_2719" data-name="Group 2719" transform="translate(1.026 18.327)">
            <path id="Path_5305" data-name="Path 5305" d="M1122.594,667.518l1.255-17.026a2.508,2.508,0,0,0-2.45-2.552l-7.236-.517-.1-.005a2.5,2.5,0,0,0-2.7,2.183l-1.32,17.917Z" transform="translate(-1110.045 -647.417)" fill="#051881"/>
            <path id="Path_5306" data-name="Path 5306" d="M1128.777,674.105l.163-2.209.856-11.608.242-3.29a1.417,1.417,0,0,0-1.386-1.443l-7.235-.517a1.424,1.424,0,0,0-1.583,1.232l-.258,3.5-1.056,14.334Z" transform="translate(-1117.374 -654.004)" fill="#06f94a"/>
            <path id="Path_5307" data-name="Path 5307" d="M1123.945,662.557a3.111,3.111,0,0,0,3.361-2.718l.626-8.484a2.788,2.788,0,0,0-.8-2.151,3.44,3.44,0,0,0-2.248-1.027l-5.946-.425-.125-.007a3.111,3.111,0,0,0-3.362,2.719l-.625,8.484a2.788,2.788,0,0,0,.8,2.151,3.438,3.438,0,0,0,2.248,1.027l5.946.425Z" transform="translate(-1114.171 -647.698)" fill="#051881"/>
            <path id="Path_5308" data-name="Path 5308" d="M1123.27,665.617a2.031,2.031,0,0,0,1.988,2.07l4.443.317,1.5.107a2.042,2.042,0,0,0,2.27-1.766l.626-8.484a2.032,2.032,0,0,0-1.988-2.069l-5.946-.425a2.042,2.042,0,0,0-2.27,1.766l-.087,1.174Z" transform="translate(-1121.477 -654.286)" fill="#f15a29"/>
          </g>
          <path id="Path_5309" data-name="Path 5309" d="M1105.664,519.923l-.181,2.451,1.778-1.165.05-.032a10.855,10.855,0,0,1,1.273-.219l.124-.008.06-.017a27.143,27.143,0,0,1,5.939-.231,23.849,23.849,0,0,1,6.842,1.456l.033.022.107.036.2.113.057,0,1.39.649.132-1.787-.032-.056c-.08-.137-.161-.273-.24-.406-3.73-6.238-7.232-8.387-7.381-8.477l-.611-.367-.658.276c-.161.067-3.941,1.7-8.547,7.339-.1.12-.2.244-.3.368Z" transform="translate(-1105.074 -511.889)" fill="#051881"/>
          <path id="Path_5310" data-name="Path 5310" d="M1221.626,576.908c.153.052.293.1.418.146.192.069.35.13.472.179l.081.032.011.005c.042.016.078.032.107.045l.006,0,.062.027.036.017q-.26-.447-.519-.865A2.05,2.05,0,0,1,1221.626,576.908Z" transform="translate(-1205.511 -567.758)" fill="#fea102"/>
          <path id="Path_5311" data-name="Path 5311" d="M1114.494,527.272v0a10.387,10.387,0,0,1,1.7-.314h.01a27.726,27.726,0,0,1,12.774.984,2.049,2.049,0,0,0,.674-.413l-.045-.073c-.063-.1-.125-.2-.188-.3-3.443-5.447-6.5-7.283-6.5-7.283h0C1122.841,519.908,1119.083,521.523,1114.494,527.272Z" transform="translate(-1112.866 -518.794)" fill="#f15a29"/>
          <path id="Path_5312" data-name="Path 5312" d="M1115.769,579.471a2.579,2.579,0,0,0,1.661-.512l1.964-1.5a2.113,2.113,0,0,0,.845-1.513l.5-6.8a2.287,2.287,0,0,0-1.925-2.32,44.8,44.8,0,0,0-6.634-.76l-.132,0-.042,0c-.259-.029-1.516-.164-3.171-.225-1.294-.048-2.515-.041-3.628.021a2.3,2.3,0,0,0-2.246,2.022l-.5,6.8a2.1,2.1,0,0,0,.616,1.619l1.722,1.761a2.567,2.567,0,0,0,1.661.75l9.218.659Z" transform="translate(-1102.456 -558.507)" fill="#051881"/>
          <path id="Path_5313" data-name="Path 5313" d="M1111,581.217a1.2,1.2,0,0,0,.353.928l1.694,1.732a1.48,1.48,0,0,0,.952.43l9.062.648a1.488,1.488,0,0,0,1-.291l1.931-1.473a1.2,1.2,0,0,0,.485-.868l.038-.511.456-6.178a1.305,1.305,0,0,0-1.1-1.33,42.844,42.844,0,0,0-6.467-.731c-.042,0-.082,0-.122-.008-.138-.016-.506-.055-1.034-.1a41.8,41.8,0,0,0-5.472-.1,1.314,1.314,0,0,0-1.286,1.16Z" transform="translate(-1109.838 -565.011)" fill="#ffbd36"/>
        </g>
      </g>
    </g>
    <g id="Group_2732" data-name="Group 2732" transform="translate(682 536.712)">
      <path id="Path_5314" data-name="Path 5314" d="M843.71,715.23l-.322-3.127a4.545,4.545,0,0,0-4.524-4.092,4.776,4.776,0,0,0-.568.035,5.049,5.049,0,0,0-1.649.5l-.1.052a4.707,4.707,0,0,0-1.187-.153,4.892,4.892,0,0,0-.568.034,5.109,5.109,0,0,0-1.449.411l-.223-.091a1.085,1.085,0,0,0-.655-.054l-.513.118a3.53,3.53,0,0,0-.922.351q-.114-.077-.231-.147a5.463,5.463,0,0,0-1.935-.722,5.306,5.306,0,0,0-.888-.074,5.727,5.727,0,0,0-1.254.142,5.605,5.605,0,0,0-1.9.808,5.437,5.437,0,0,0-1.439-.568,7.248,7.248,0,0,0-1.672-.21,5.686,5.686,0,0,0-1.09.1,5.343,5.343,0,0,0-1.8.722,6.137,6.137,0,0,0-.95.766,5.848,5.848,0,0,0-1.069,1.513l-.041.084c.051-.231.092-.475.13-.788.018-.2.028-.4.028-.585a8.472,8.472,0,0,0-.309-2.276,10.631,10.631,0,0,0-1.2-2.763,10.156,10.156,0,0,0-2.06-2.415,9.921,9.921,0,0,0-4.764-2.14,10.64,10.64,0,0,0-1.587-.121,9.652,9.652,0,0,0-2.381.3,9.45,9.45,0,0,0-3.383,1.614,9.57,9.57,0,0,0-2.457,2.782,8.413,8.413,0,0,0-.914-1.339,9.855,9.855,0,0,0-2.245-1.975,9.431,9.431,0,0,0-2.9-1.244,9.068,9.068,0,0,0-2.008-.224,10.221,10.221,0,0,0-3.192.536,10.346,10.346,0,0,0-3.456,1.994q-.17.149-.335.308a4.808,4.808,0,0,0-1.917-1.661,4.324,4.324,0,0,0-2.022-.494,4.93,4.93,0,0,0-2.468.683l-1.247-1.266a1.083,1.083,0,0,0-.671-.318l-.6-.056q-.234-.022-.461-.021a4.768,4.768,0,0,0-3.021,1.079,5.066,5.066,0,0,0-1.743,2.551,9.728,9.728,0,0,0-4.765-3.046,9.311,9.311,0,0,0-2.495-.335,10.43,10.43,0,0,0-1.219.073,9.589,9.589,0,0,0-4.868,1.99,10,10,0,0,0-2.083,2.215,8.185,8.185,0,0,0-1.516-1.825,8.42,8.42,0,0,0-2.336-1.547,8.154,8.154,0,0,0-2.648-.658c-.21-.016-.42-.024-.623-.024a6.974,6.974,0,0,0-3.041.658l-.792-.578a.954.954,0,0,0-.081-.054l-.5-.3a1.087,1.087,0,0,0-.559-.155h-.5a4.84,4.84,0,0,0-3.361,1.318A5.119,5.119,0,0,0,737.052,703q-.118-.179-.248-.353a7.305,7.305,0,0,0-5.85-2.934,7.641,7.641,0,0,0-1.008.068,8.4,8.4,0,0,0-2.727.87,15.766,15.766,0,0,0-1.4.844,7.94,7.94,0,0,0-3.127-.66,7.35,7.35,0,0,0-.988.066,8.875,8.875,0,0,0-2.561.777,9.365,9.365,0,0,0-1.126.6l-1.371-.549a1.078,1.078,0,0,0-.4-.077,1.1,1.1,0,0,0-.208.02l-.481.094a4.911,4.911,0,0,0-1.986.877,5.18,5.18,0,0,0-.629-.584,4.889,4.889,0,0,0-2.553-1.019c-.17-.017-.34-.025-.5-.025a4.69,4.69,0,0,0-2.216.544,5.079,5.079,0,0,0-1.814,1.575,5.471,5.471,0,0,0-.593-.993,4.841,4.841,0,0,0-3.45-1.981,5.132,5.132,0,0,0-.524-.027,4.742,4.742,0,0,0-1.559.255,5.471,5.471,0,0,0-.96-2.441,4.882,4.882,0,0,0-3.474-2.122,5.051,5.051,0,0,0-.624-.039,4.836,4.836,0,0,0-3.245,1.248A5.285,5.285,0,0,0,689.6,700.6l-.978,9.426a5.9,5.9,0,0,0-1.678-.454c-.146-.013-.29-.018-.429-.018a4.415,4.415,0,0,0-3.745,2.071,4.731,4.731,0,0,0-.741,2.108,5.1,5.1,0,0,0,1.071,3.63,7.661,7.661,0,0,0,3.437,2.472c.285.107.675.227,1.267.389a11.457,11.457,0,0,0,2.6.323,7.958,7.958,0,0,0,3.452-.749,7.649,7.649,0,0,0,3.27-2.948l.016.023a8.721,8.721,0,0,0,5.536,3.465,13.475,13.475,0,0,0,1.611.279,11.8,11.8,0,0,0,1.2.054c.126,0,.257,0,.4,0a9.775,9.775,0,0,0,4.384-1.018,6.91,6.91,0,0,0,2.372-2.013,5.255,5.255,0,0,0,1.771,2.889,4.824,4.824,0,0,0,3.1,1.125,5.121,5.121,0,0,0,.663-.044,4.817,4.817,0,0,0,3.343-2.021,5.361,5.361,0,0,0,.474-.79,5.686,5.686,0,0,0,.517.56l.076.067a4.767,4.767,0,0,0,3.142,1.17,5.066,5.066,0,0,0,.672-.045,4.814,4.814,0,0,0,3.36-2,5.526,5.526,0,0,0,.495-.833,5.381,5.381,0,0,0,.616.6,4.832,4.832,0,0,0,3.144,1.153,5.274,5.274,0,0,0,.678-.045,4.932,4.932,0,0,0,.9-.2l-.152,2.334a5.37,5.37,0,0,0,1.108,3.7,4.812,4.812,0,0,0,3.533,1.943c.121.008.239.013.357.013a4.727,4.727,0,0,0,3.327-1.366,5.208,5.208,0,0,0,1.655-3.559l.109-1.684c.2.031.41.055.615.071s.425.024.636.024a8.834,8.834,0,0,0,2.436-.356,8.511,8.511,0,0,0,3.934-2.552,9.292,9.292,0,0,0,.953-1.293l.04.057a9.611,9.611,0,0,0,3.9,3.264,9.365,9.365,0,0,0,3.939.857,10.361,10.361,0,0,0,1.207-.072,9.688,9.688,0,0,0,4.913-2.014,10.149,10.149,0,0,0,.8-.707,4.938,4.938,0,0,0,3.324,2.1,4.822,4.822,0,0,0,.729.055,4.7,4.7,0,0,0,1.985-.435,5.008,5.008,0,0,0,2.052-1.707,5.5,5.5,0,0,0,.973-2.465l.4-2.747a7.448,7.448,0,0,1,.213-1.075c.013-.04.025-.073.035-.1a4.27,4.27,0,0,1,.766-.243c.073-.02.129-.036.169-.045l.192-.042c.292-.055.573-.12.839-.194a10.507,10.507,0,0,0,.193,1.729l.029.138c.031.15.069.312.141.577.07.236.15.477.252.758a10.272,10.272,0,0,0,1.581,2.846,8.945,8.945,0,0,0,3.1,2.495,9.552,9.552,0,0,0,3.955.946c.1,0,.2,0,.305,0a12.081,12.081,0,0,0,3.962-.7,15.206,15.206,0,0,0,1.86-.784,15.521,15.521,0,0,0,2.343-1.451l.075-.061a12.293,12.293,0,0,0,1.024-.949l.038.05a10.174,10.174,0,0,0,3.118,2.653,12.081,12.081,0,0,0,4.1,1.369,14.378,14.378,0,0,0,1.981.171c.1,0,.193,0,.289,0a14.758,14.758,0,0,0,2.464-.211l.094-.019a9.231,9.231,0,0,0,1.874-.606,5.216,5.216,0,0,0,1.145-.728,3.641,3.641,0,0,0,4.456-.265,6.325,6.325,0,0,0,2.293.789,7.835,7.835,0,0,0,1.028.072,5.636,5.636,0,0,0,.96-.078A4.076,4.076,0,0,0,825,719a5.53,5.53,0,0,0,1.043.477,5.4,5.4,0,0,0,1.742.288,5.793,5.793,0,0,0,2.8-.732q.138.144.3.284a3.519,3.519,0,0,0,2.255.82,3.8,3.8,0,0,0,.437-.026,2.807,2.807,0,0,1,3.047-.387,3.875,3.875,0,0,0,.446-.026,2.833,2.833,0,0,1,3.069-.414,4,4,0,0,0,.446-.027,3.483,3.483,0,0,0,1.788-.758,3.63,3.63,0,0,0,1.082-1.457A3.691,3.691,0,0,0,843.71,715.23Z" transform="translate(-682 -695.78)" fill="#fff"/>
      <g id="Group_2731" data-name="Group 2731" transform="translate(1.083 1.082)">
        <path id="Path_5315" data-name="Path 5315" d="M849.562,722.263l-.322-3.127a3.463,3.463,0,0,0-3.448-3.12,3.634,3.634,0,0,0-.439.027,3.923,3.923,0,0,0-1.287.394c-.139.071-.291.157-.462.264a3.619,3.619,0,0,0-1.751-.22,4.127,4.127,0,0,0-1.188.346q-.185.08-.358.175l-.669-.275-.515.118a2.454,2.454,0,0,0-.982.471,2.6,2.6,0,0,0-.212.186,4.32,4.32,0,0,0-.763-.584,4.391,4.391,0,0,0-1.553-.58,4.234,4.234,0,0,0-.707-.059,4.679,4.679,0,0,0-1.017.116,4.49,4.49,0,0,0-2.111,1.108,3.841,3.841,0,0,0-1.749-.879,6.215,6.215,0,0,0-1.389-.173,4.553,4.553,0,0,0-.879.084,4.247,4.247,0,0,0-1.435.574,5.012,5.012,0,0,0-.757.61,4.774,4.774,0,0,0-.872,1.236,4.5,4.5,0,0,0-.436,1.421,2.564,2.564,0,0,0-2.149.273,2.676,2.676,0,0,0-.532.438,3.419,3.419,0,0,0-.221-.355,3.113,3.113,0,0,0-.2-.251,2.443,2.443,0,0,0,.411-.26,3.094,3.094,0,0,0,1.026-1.761,6.382,6.382,0,0,0,.141-.787c.015-.169.023-.338.023-.5a7.38,7.38,0,0,0-.271-1.983,9.548,9.548,0,0,0-1.082-2.481,9.017,9.017,0,0,0-1.83-2.149,8.8,8.8,0,0,0-4.233-1.9,9.551,9.551,0,0,0-1.425-.109,8.541,8.541,0,0,0-2.112.262,8.381,8.381,0,0,0-3,1.428,8.495,8.495,0,0,0-2.19,2.491,9.02,9.02,0,0,0-1.029,2.631l-.026.122c-.028.132-.054.278-.087.492s-.051.46-.068.71c-.011.169-.011.337-.013.5a3.2,3.2,0,0,0-.3-.191c-.072-.039-.146-.075-.221-.108a2.484,2.484,0,0,0,.286-.448,3.13,3.13,0,0,0,.218-1.961l-.007-.043a6.5,6.5,0,0,0-.187-.778c-.049-.146-.107-.3-.179-.465a7.041,7.041,0,0,0-1.05-1.684,8.772,8.772,0,0,0-2-1.757,8.3,8.3,0,0,0-2.556-1.1,8,8,0,0,0-1.768-.2,9.075,9.075,0,0,0-2.837.477,9.279,9.279,0,0,0-3.1,1.783,9.452,9.452,0,0,0-1.364,1.5,3.842,3.842,0,0,0-.542-1.331,3.743,3.743,0,0,0-1.554-1.366,3.4,3.4,0,0,0-1.079-.347,3.549,3.549,0,0,0-.45-.029,4.035,4.035,0,0,0-2.333.8.413.413,0,0,1-.529-.054l-1.3-1.322a1.256,1.256,0,0,0-.779-.369l-.148-.014q-.183-.017-.361-.017a3.711,3.711,0,0,0-2.348.844,4.076,4.076,0,0,0-1.53,2.7l-.291,2.017c-.108-.257-.224-.51-.354-.754a8.933,8.933,0,0,0-1.047-1.538,8.643,8.643,0,0,0-4.25-2.727,8.21,8.21,0,0,0-2.2-.3,9.33,9.33,0,0,0-1.092.065,8.519,8.519,0,0,0-4.327,1.767,8.969,8.969,0,0,0-2.781,3.682c-.012.029-.021.057-.033.086a9.262,9.262,0,0,0-.35-.888,7.694,7.694,0,0,0-1.839-2.547,7.35,7.35,0,0,0-2.036-1.351,7.063,7.063,0,0,0-2.3-.57c-.182-.014-.364-.021-.541-.021a5.887,5.887,0,0,0-3.13.85l-1.343-.98-.065-.039a1.81,1.81,0,0,0-.935-.26,3.789,3.789,0,0,0-2.629,1.034,4.049,4.049,0,0,0-1.32,2.818l-.22,3.385-.243-2.169a6.2,6.2,0,0,0-6.17-5.562,6.574,6.574,0,0,0-.867.058,7.291,7.291,0,0,0-2.366.755,16.48,16.48,0,0,0-1.617,1l-.179.135a7.043,7.043,0,0,0-3.235-.824,6.336,6.336,0,0,0-.846.056,7.867,7.867,0,0,0-2.26.693,8.115,8.115,0,0,0-1.255.7.421.421,0,0,1-.394.046l-1.237-.494a1.663,1.663,0,0,0-.938-.088,3.849,3.849,0,0,0-1.687.79.975.975,0,1,1-1.8-.708,3.816,3.816,0,0,0-1.993-.794,3.939,3.939,0,0,0-.4-.02,3.631,3.631,0,0,0-1.715.421,4.051,4.051,0,0,0-1.548,1.411,4.246,4.246,0,0,0-.687,2.008l-.47,5.414a1.087,1.087,0,0,1-.13.531l-.043.043a.492.492,0,0,1-.282.05H711.9a.377.377,0,0,1-.122-.128l-.035-.051a1.048,1.048,0,0,1-.054-.57l.47-5.413a4.275,4.275,0,0,0-.835-3.024,3.784,3.784,0,0,0-2.694-1.553,4.1,4.1,0,0,0-.413-.021,3.69,3.69,0,0,0-1.691.4,3.963,3.963,0,0,0-1,.716l.067-.645a4.476,4.476,0,0,0-.785-3.118,3.831,3.831,0,0,0-2.722-1.669,3.92,3.92,0,0,0-.488-.03,3.787,3.787,0,0,0-2.536.983,4.237,4.237,0,0,0-1.458,2.862l-1.061,10.228a3.579,3.579,0,0,1-.145.762l-.024-.008-.284-.188-.46-.262-.121-.052a2.239,2.239,0,0,0-.3-.131,4.764,4.764,0,0,0-1.433-.41c-.115-.01-.228-.015-.338-.015a3.335,3.335,0,0,0-2.833,1.571,3.672,3.672,0,0,0-.576,1.637,4.049,4.049,0,0,0,.865,2.875,6.561,6.561,0,0,0,2.946,2.1c.253.095.622.208,1.167.358a9.288,9.288,0,0,0,1.232.218,9.078,9.078,0,0,0,1.088.068,6.9,6.9,0,0,0,2.988-.644,6.65,6.65,0,0,0,2.9-2.687,8.752,8.752,0,0,0,.84-1.9,6.733,6.733,0,0,0,.9,2.036,7.68,7.68,0,0,0,4.881,3.016,12.455,12.455,0,0,0,1.481.257,10.738,10.738,0,0,0,1.088.049q.179,0,.373,0a8.711,8.711,0,0,0,3.9-.894,5.948,5.948,0,0,0,2.562-2.587,9.427,9.427,0,0,0,.889-2.762l.4,3.544a4.172,4.172,0,0,0,1.481,2.8,3.769,3.769,0,0,0,2.418.884,4.047,4.047,0,0,0,.521-.035,3.76,3.76,0,0,0,2.607-1.581,4.223,4.223,0,0,0,.759-3.029l-.66-5.905a.417.417,0,0,1,.086-.33c.09-.115.142-.122.177-.128a.268.268,0,0,1,.063.047.439.439,0,0,1,.151.308l.657,5.879a4.6,4.6,0,0,0,.43,1.473,4.3,4.3,0,0,0,.924,1.277l.056.05a3.71,3.71,0,0,0,2.445.916,4,4,0,0,0,.531-.036,3.756,3.756,0,0,0,2.622-1.556,4.263,4.263,0,0,0,.769-3.057l-.654-5.85a.444.444,0,0,1,.083-.348c.07-.095.114-.1.167-.1a.194.194,0,0,1,.061.039.333.333,0,0,1,.08.106.6.6,0,0,1,.06.2l.648,5.8a4.052,4.052,0,0,0,1.465,2.772,3.774,3.774,0,0,0,2.455.906,4.177,4.177,0,0,0,.536-.036,3.745,3.745,0,0,0,1.92-.835,4.177,4.177,0,0,0,.339-.316l-.288,4.425a4.314,4.314,0,0,0,.888,2.972,3.744,3.744,0,0,0,2.746,1.52c.1.006.191.01.284.01a3.676,3.676,0,0,0,2.583-1.07,4.158,4.158,0,0,0,1.318-2.842l.193-2.964a7.006,7.006,0,0,0,1.7.342c.182.014.368.021.552.021a7.658,7.658,0,0,0,2.117-.308,7.442,7.442,0,0,0,3.44-2.232,8.866,8.866,0,0,0,1.7-2.979,8.96,8.96,0,0,0,.988,1.838,8.543,8.543,0,0,0,3.47,2.9,8.294,8.294,0,0,0,3.487.759,9.266,9.266,0,0,0,1.08-.064,8.614,8.614,0,0,0,4.367-1.787,9.086,9.086,0,0,0,1.737-1.824,4.09,4.09,0,0,0,.615,1.333,3.864,3.864,0,0,0,2.608,1.663,3.8,3.8,0,0,0,.568.043,3.637,3.637,0,0,0,1.536-.337,3.957,3.957,0,0,0,1.619-1.349,4.442,4.442,0,0,0,.783-1.992l.4-2.747a8.539,8.539,0,0,1,.251-1.241,1.48,1.48,0,0,1,.24-.493,1.021,1.021,0,0,1,.35-.255,4.924,4.924,0,0,1,.957-.315c.1-.027.175-.048.227-.059l.222-.048a6.4,6.4,0,0,0,2.232-.8c-.018.12-.043.239-.056.361a9.252,9.252,0,0,0,.116,2.82l.029.138c.028.134.062.279.119.49s.137.438.229.691a9.19,9.19,0,0,0,1.413,2.547,7.875,7.875,0,0,0,2.724,2.2,8.489,8.489,0,0,0,3.514.837c.09,0,.18,0,.271,0a10.992,10.992,0,0,0,3.605-.645,14.259,14.259,0,0,0,3.886-2.061l.054-.043a9.117,9.117,0,0,0,1.259-1.235,4.483,4.483,0,0,0,.519-.821,8.526,8.526,0,0,0,.836,1.325A9.1,9.1,0,0,0,810,725.2a11,11,0,0,0,3.736,1.243,13.51,13.51,0,0,0,1.85.159c.086,0,.172,0,.258,0a13.464,13.464,0,0,0,2.245-.189l.071-.015a8.2,8.2,0,0,0,1.655-.53,3.954,3.954,0,0,0,1.191-.841,3.637,3.637,0,0,0,.369-.459,2.768,2.768,0,0,0,.2.259,2.564,2.564,0,0,0,3.812,0,2.688,2.688,0,0,0,.326-.442,4.36,4.36,0,0,0,.51.407,5.061,5.061,0,0,0,2.093.779,6.73,6.73,0,0,0,.885.062,4.549,4.549,0,0,0,.777-.063,2.915,2.915,0,0,0,1.438-.631,2.428,2.428,0,0,0,.406-.445,4.391,4.391,0,0,0,2.895,1.1,4.627,4.627,0,0,0,1.014-.115,4.516,4.516,0,0,0,2.053-1.051,2.669,2.669,0,0,0,.717.965,2.447,2.447,0,0,0,1.567.574,2.628,2.628,0,0,0,.306-.019,2.106,2.106,0,0,1,3.178-.394,2.673,2.673,0,0,0,.312-.019,2.409,2.409,0,0,0,1.672-.961,2.438,2.438,0,0,0,1.53.54c.067,0,.136,0,.209-.009a2.392,2.392,0,0,0,1.042-.324,2.56,2.56,0,0,0,1.065-1.239A2.622,2.622,0,0,0,849.562,722.263Z" transform="translate(-690.011 -703.785)" fill="#051881"/>
        <g id="Group_2730" data-name="Group 2730" transform="translate(1.666 1.666)">
          <g id="Group_2728" data-name="Group 2728" transform="translate(130.838 12.231)">
            <g id="Group_2727" data-name="Group 2727">
              <path id="Path_5316" data-name="Path 5316" d="M1670.839,839.989a.89.89,0,0,1-.684-.31,1.118,1.118,0,0,1-.157-1.266,1.011,1.011,0,0,1,.356-.381.9.9,0,0,1,1.158.17l.006.006a.984.984,0,0,1,.268.726,1.05,1.05,0,0,1-.274.744A.88.88,0,0,1,1670.839,839.989Z" transform="translate(-1669.87 -833.654)" fill="#f15a29"/>
              <g id="Group_2723" data-name="Group 2723" transform="translate(3.377 0.436)">
                <path id="Path_5317" data-name="Path 5317" d="M1698.151,815.632a5.184,5.184,0,0,1-.666-.047,3.36,3.36,0,0,1-1.383-.511,2.641,2.641,0,0,1-.89-1.012,3.109,3.109,0,0,1-.349-1.8,2.827,2.827,0,0,1,.28-.909,3.127,3.127,0,0,1,.568-.807,3.169,3.169,0,0,1,.459-.37,2.575,2.575,0,0,1,.869-.348,2.841,2.841,0,0,1,.553-.052,3.745,3.745,0,0,1,.484.033,3.952,3.952,0,0,1,.47.082c1.413.347,1.392,1.062,1.36,1.372a.659.659,0,0,1-.262.375.64.64,0,0,1-.377.112.97.97,0,0,1-.125-.009.557.557,0,0,1-.109-.03l-.048-.017-.271-.105-.142-.054-.229-.084a1.681,1.681,0,0,0-.37-.081,1.618,1.618,0,0,0-.212-.014,1.223,1.223,0,0,0-.777.261,1.368,1.368,0,0,0-.492.953l0,.014v.014a1.469,1.469,0,0,0,.105.656,1.381,1.381,0,0,0,.383.505l.01.008a1.311,1.311,0,0,0,.655.276,2.169,2.169,0,0,0,.278.016l.1,0,.047.006.441-.054a1.312,1.312,0,0,1,.163-.008c.054,0,.115,0,.182.006a.722.722,0,0,1,.529.292.976.976,0,0,1,.129.666.738.738,0,0,1-.238.376,1.307,1.307,0,0,1-.633.253A2.951,2.951,0,0,1,1698.151,815.632Z" transform="translate(-1694.843 -809.774)" fill="#f15a29"/>
              </g>
              <g id="Group_2725" data-name="Group 2725" transform="translate(9.424 0.264)">
                <g id="Group_2724" data-name="Group 2724">
                  <path id="Path_5318" data-name="Path 5318" d="M1742.333,814.492a2.65,2.65,0,0,1-.857-.142,2.693,2.693,0,0,1-1.212-.827,2.913,2.913,0,0,1-.648-1.367,3.125,3.125,0,0,1,.088-1.549,2.994,2.994,0,0,1,.808-1.308,2.843,2.843,0,0,1,1.361-.722,2.99,2.99,0,0,1,.652-.075,2.585,2.585,0,0,1,.429.035,2.725,2.725,0,0,1,.966.36,2.694,2.694,0,0,1,.494.381,2.819,2.819,0,0,1,.662,1,3.215,3.215,0,0,1,.2,1.593,3.022,3.022,0,0,1-.3.977,3.067,3.067,0,0,1-.62.842,2.878,2.878,0,0,1-1.375.73A2.977,2.977,0,0,1,1742.333,814.492Zm.066-4.476a1.134,1.134,0,0,0-.248.028,1.225,1.225,0,0,0-.9.9,1.811,1.811,0,0,0,.494,1.837,1.121,1.121,0,0,0,.73.282h0a1.11,1.11,0,0,0,.244-.028,1.177,1.177,0,0,0,.231-.09,1.335,1.335,0,0,0,.737-1.4,3.044,3.044,0,0,0-.035-.32,1.514,1.514,0,0,0-.351-.749A1.17,1.17,0,0,0,1742.4,810.016Z" transform="translate(-1739.557 -808.501)" fill="#f15a29"/>
                </g>
              </g>
              <g id="Group_2726" data-name="Group 2726" transform="translate(16.306)">
                <path id="Path_5319" data-name="Path 5319" d="M1791.7,813.178a.779.779,0,0,1-.509-.194.905.905,0,0,1-.315-.625l-.414-4.019a.954.954,0,0,1,.067-.475.894.894,0,0,1,.276-.371.8.8,0,0,1,.323-.157l1.3.534.059-.378a2.982,2.982,0,0,1,1.206-.49,1.929,1.929,0,0,1,.231-.014,2.167,2.167,0,0,1,1.022.275l.134.077.316.167.278-.215.184-.138a6.09,6.09,0,0,1,.6-.363,2.25,2.25,0,0,1,.729-.226,1.989,1.989,0,0,1,.24-.015,1.8,1.8,0,0,1,.722.151,1.775,1.775,0,0,1,1.068,1.474l.322,3.128a.965.965,0,0,1-.064.479.9.9,0,0,1-.27.368.758.758,0,0,1-.4.167.928.928,0,0,1-.111.007.782.782,0,0,1-.52-.2.875.875,0,0,1-.314-.618l-.253-2.458a1.109,1.109,0,0,0-.106-.373.987.987,0,0,0-.239-.313.909.909,0,0,0-.322-.183.842.842,0,0,0-.255-.039.872.872,0,0,0-.1.006.905.905,0,0,0-.619.366,1.039,1.039,0,0,0-.2.75l.256,2.481a.952.952,0,0,1-.177.7.749.749,0,0,1-.548.314.912.912,0,0,1-.109.007.756.756,0,0,1-.506-.2.961.961,0,0,1-.2-.286,1.1,1.1,0,0,1-.1-.351l-.257-2.493a1.043,1.043,0,0,0-.328-.666.859.859,0,0,0-.591-.243c-.027,0-.054,0-.081,0h-.01a.944.944,0,0,0-.631.36,1.024,1.024,0,0,0-.219.758l.258,2.5a.934.934,0,0,1-.173.688.749.749,0,0,1-.541.325A.872.872,0,0,1,1791.7,813.178Z" transform="translate(-1790.454 -806.552)" fill="#f15a29"/>
              </g>
            </g>
          </g>
          <g id="Group_2729" data-name="Group 2729">
            <path id="Path_5320" data-name="Path 5320" d="M816.653,749.587a2.131,2.131,0,0,0-1.131-.448,2.242,2.242,0,0,0-.231-.012,2,2,0,0,0-.946.233,2.422,2.422,0,0,0-.924.847,2.617,2.617,0,0,0-.42,1.239l-.47,5.413a2.384,2.384,0,0,1-.631,1.584,1.968,1.968,0,0,1-1.483.562,3.553,3.553,0,0,1-.362-.019l-.068-.007-.065-.023a2.023,2.023,0,0,1-1.06-.832,2.47,2.47,0,0,1-.355-1.678l.47-5.413a2.623,2.623,0,0,0-.509-1.881,2.109,2.109,0,0,0-1.533-.9,2.33,2.33,0,0,0-.24-.013,2.059,2.059,0,0,0-.943.224,2.356,2.356,0,0,0-.918.815,2.528,2.528,0,0,0-.415,1.225l-.477,5.5a7.194,7.194,0,0,0,.886,4.7,6.088,6.088,0,0,0,3.873,2.324,10.761,10.761,0,0,0,1.278.224,9.13,9.13,0,0,0,.917.04c.109,0,.221,0,.339,0a7.074,7.074,0,0,0,3.158-.7,4.332,4.332,0,0,0,1.864-1.887,8.892,8.892,0,0,0,.861-3.339l.477-5.5a2.625,2.625,0,0,0-.192-1.292A2.439,2.439,0,0,0,816.653,749.587Z" transform="translate(-790.159 -743.898)" fill="#ffbd36"/>
            <path id="Path_5321" data-name="Path 5321" d="M941.286,749.255a4.539,4.539,0,0,0-4.515-4.081,4.947,4.947,0,0,0-.649.044,5.613,5.613,0,0,0-1.812.58,14.871,14.871,0,0,0-1.448.894l-.44.338-.507.4-.588-.3-.312-.175a5.411,5.411,0,0,0-2.508-.658,4.8,4.8,0,0,0-.628.042,6.289,6.289,0,0,0-1.8.562,6.469,6.469,0,0,0-.972.536c-.055.037-.417.247-.77.453a.632.632,0,0,1-.554.041l-1.338-.535a1.506,1.506,0,0,0-1.5.221l-.016.013a2.433,2.433,0,0,0-.742,1.013,2.6,2.6,0,0,0-.172,1.3l1.06,9.477a2.484,2.484,0,0,0,.874,1.688,2.117,2.117,0,0,0,1.369.513,2.326,2.326,0,0,0,.3-.021,2.078,2.078,0,0,0,1.473-.9,2.571,2.571,0,0,0,.455-1.87l-.66-5.906a2.078,2.078,0,0,1,.431-1.543,1.917,1.917,0,0,1,1.29-.753l.016,0a1.794,1.794,0,0,1,.184-.01,1.721,1.721,0,0,1,1.184.482,2.1,2.1,0,0,1,.683,1.352l.657,5.879a2.935,2.935,0,0,0,.277.939,2.616,2.616,0,0,0,.551.772,2.06,2.06,0,0,0,1.371.523,2.425,2.425,0,0,0,.313-.021,2.078,2.078,0,0,0,1.489-.878,2.612,2.612,0,0,0,.465-1.9l-.654-5.851a2.117,2.117,0,0,1,.4-1.527,1.849,1.849,0,0,1,1.256-.76,1.782,1.782,0,0,1,.231-.015,1.713,1.713,0,0,1,.5.075,1.845,1.845,0,0,1,.658.366,1.99,1.99,0,0,1,.49.631,2.269,2.269,0,0,1,.225.761l.648,5.8a2.407,2.407,0,0,0,.871,1.673,2.12,2.12,0,0,0,1.394.524,2.492,2.492,0,0,0,.375-.029,2.131,2.131,0,0,0,1.042-.478,2.453,2.453,0,0,0,.7-.988,2.627,2.627,0,0,0,.166-1.3Z" transform="translate(-890.566 -741.243)" fill="#ffbd36"/>
            <path id="Path_5322" data-name="Path 5322" d="M1111.421,752.806a6.075,6.075,0,0,0-1.457-2.023,5.7,5.7,0,0,0-1.574-1.049,5.383,5.383,0,0,0-1.753-.435c-.14-.011-.28-.016-.415-.016a4.326,4.326,0,0,0-1.976.449c-.074.037-.472.278-.9.541a.575.575,0,0,1-.64-.026l-1.751-1.277a.551.551,0,0,0-.354-.111,2.14,2.14,0,0,0-1.354.591,2.4,2.4,0,0,0-.784,1.7l-1.072,16.479a2.656,2.656,0,0,0,.549,1.853,2.059,2.059,0,0,0,1.539.869c.056,0,.112.006.167.006a2.037,2.037,0,0,0,1.44-.616,2.507,2.507,0,0,0,.8-1.739l.3-4.546a.576.576,0,0,1,.865-.46l.233.136.046.024.255.119a5.24,5.24,0,0,0,1.987.551c.14.011.281.016.422.016a5.928,5.928,0,0,0,1.628-.234,5.811,5.811,0,0,0,2.68-1.742,7.579,7.579,0,0,0,1.607-3.174l.006-.023a7.212,7.212,0,0,0,.224-1.06l0-.02c.022-.159.039-.328.051-.5.009-.144.013-.3.012-.459,0-.3-.018-.638-.049-1A8.648,8.648,0,0,0,1111.421,752.806Zm-3.731,3.5a6.812,6.812,0,0,1-.114.894,3.794,3.794,0,0,1-.73,1.682,2.254,2.254,0,0,1-1.777.9c-.061,0-.122,0-.185-.007a2.33,2.33,0,0,1-1.778-1.034,3.255,3.255,0,0,1-.57-1.657,4.908,4.908,0,0,1-.006-.629,4.414,4.414,0,0,1,.08-.6v0l.01-.045a2.9,2.9,0,0,1,.875-1.569,2.7,2.7,0,0,1,1.876-.692c.093,0,.189,0,.285.011l.051,0,.049.013a2.377,2.377,0,0,1,1.345.929,3.08,3.08,0,0,1,.548,1.379c.016.1.029.206.039.323l0,.054Z" transform="translate(-1043.96 -744.427)" fill="#ffbd36"/>
            <path id="Path_5323" data-name="Path 5323" d="M1236.339,756.892c-.017-.172-.038-.327-.064-.483a8.12,8.12,0,0,0-.224-.992,7.176,7.176,0,0,0-1.415-2.63,6.977,6.977,0,0,0-3.425-2.2,6.552,6.552,0,0,0-1.757-.234,7.682,7.682,0,0,0-.9.054,6.872,6.872,0,0,0-3.494,1.424,7.317,7.317,0,0,0-2.269,3.007,7.748,7.748,0,0,0-.589,3.278c.006.169.017.343.034.511s.038.307.063.462a7.352,7.352,0,0,0,1.235,3.072,6.9,6.9,0,0,0,2.8,2.345,6.641,6.641,0,0,0,2.792.606h0a7.581,7.581,0,0,0,.885-.053,6.956,6.956,0,0,0,3.528-1.439,7.4,7.4,0,0,0,2.648-4.239,8.048,8.048,0,0,0,.179-1.995C1236.366,757.214,1236.354,757.051,1236.339,756.892Zm-4.4,1.166,0,.1a2.724,2.724,0,0,1-1.811,2.8,1.869,1.869,0,0,1-.787.16,2.356,2.356,0,0,1-1.714-.767,3.4,3.4,0,0,1-.861-1.606,4.824,4.824,0,0,1-.109-.654,4.181,4.181,0,0,1-.019-.564v-.006l0-.054a3.4,3.4,0,0,1,.273-1.177,2.544,2.544,0,0,1,2.061-1.706,2.368,2.368,0,0,1,2.343,1.18,3.006,3.006,0,0,1,.493,1.039,4.033,4.033,0,0,1,.114.639C1231.936,757.574,1231.941,757.771,1231.939,758.058Z" transform="translate(-1151.9 -745.724)" fill="#ffbd36"/>
            <path id="Path_5324" data-name="Path 5324" d="M1347.827,749.692l-.022-.01-.021-.012a1.6,1.6,0,0,0-.5-.163,1.846,1.846,0,0,0-.239-.016,2.647,2.647,0,0,0-1.664.716l-.726.622a.448.448,0,0,1-.61-.026l-2.1-2.134-.35-.156a2.056,2.056,0,0,0-1.314.484,2.428,2.428,0,0,0-.916,1.634L1338,760.09a2.411,2.411,0,0,0,.412,1.8,2.2,2.2,0,0,0,1.491.968,2.112,2.112,0,0,0,.317.024,2.008,2.008,0,0,0,.846-.188,2.335,2.335,0,0,0,.952-.8,2.818,2.818,0,0,0,.491-1.263l.4-2.748a9.944,9.944,0,0,1,.309-1.5,3.137,3.137,0,0,1,.535-1.046,2.644,2.644,0,0,1,.921-.707,6.208,6.208,0,0,1,1.238-.421c.133-.037.237-.063.312-.08l.259-.056.013,0a4.226,4.226,0,0,0,1.905-.754,1.8,1.8,0,0,0,.642-1.181c.011-.079.028-.245.04-.587a2.167,2.167,0,0,0-.435-1.2A2.084,2.084,0,0,0,1347.827,749.692Z" transform="translate(-1252.012 -744.13)" fill="#ffbd36"/>
            <path id="Path_5325" data-name="Path 5325" d="M1446.108,760.313a1.619,1.619,0,0,0-.074-.347,1.8,1.8,0,0,0-.141-.349,1.394,1.394,0,0,0-.583-.579,1.321,1.321,0,0,0-.422-.142,1.407,1.407,0,0,0-.212-.016,2.016,2.016,0,0,0-.657.123,5.5,5.5,0,0,0-1.037.6c-.2.142-.366.254-.513.348a8.474,8.474,0,0,1-1.388.756l-.029.011a9.822,9.822,0,0,1-1.432.4,5.161,5.161,0,0,1-.78.091l-.11,0c-.066,0-.128,0-.187-.007a3.468,3.468,0,0,1-.959-.23l-.041-.016-.039-.022a4.521,4.521,0,0,1-.7-.43l-.9-.779,7.552-2.629a3.2,3.2,0,0,0,.871-.436,1.12,1.12,0,0,0,.351-.392,1.577,1.577,0,0,0,.063-.934l-.008-.044a4.629,4.629,0,0,0-.123-.523c-.035-.1-.077-.214-.128-.332a5.387,5.387,0,0,0-.8-1.283,7.133,7.133,0,0,0-1.624-1.423,6.617,6.617,0,0,0-2.022-.872,6.31,6.31,0,0,0-1.4-.156,7.378,7.378,0,0,0-2.29.384,7.623,7.623,0,0,0-2.542,1.461,7.541,7.541,0,0,0-2.41,7.1l.029.141c.022.108.05.224.085.356.055.185.117.374.185.56l.01.027a7.532,7.532,0,0,0,1.154,2.088,6.219,6.219,0,0,0,2.151,1.735,6.846,6.846,0,0,0,2.83.668q.111,0,.223,0a9.331,9.331,0,0,0,3.057-.552,12.561,12.561,0,0,0,3.419-1.808,7.48,7.48,0,0,0,1.023-.993,2.574,2.574,0,0,0,.432-.76,2.259,2.259,0,0,0,.117-.7v-.089Zm-10.374-3.537a3.207,3.207,0,0,1,.193-1.17,2.347,2.347,0,0,1,.906-1.153l.064-.043.072-.025a3.058,3.058,0,0,1,1-.187,1.85,1.85,0,0,1,1.079.325,2.208,2.208,0,0,1,.72.894,1.935,1.935,0,0,1,.149.375l.188.637-4.128,1.437-.187-.637A1.566,1.566,0,0,1,1435.734,756.775Z" transform="translate(-1332.684 -746.021)" fill="#ffbd36"/>
            <path id="Path_5326" data-name="Path 5326" d="M1569.38,756.778a7.879,7.879,0,0,0-.895-2.048,7.318,7.318,0,0,0-1.476-1.739,7.121,7.121,0,0,0-3.415-1.533,7.887,7.887,0,0,0-1.176-.091,6.872,6.872,0,0,0-1.7.21,6.729,6.729,0,0,0-2.409,1.144,6.843,6.843,0,0,0-1.758,2,7.337,7.337,0,0,0-.837,2.136l-.025.116c-.022.106-.044.224-.065.361-.025.193-.043.393-.057.595v.009a8,8,0,0,0,.208,2.442,6.892,6.892,0,0,0,1.248,2.578,7.444,7.444,0,0,0,2.284,1.935,9.341,9.341,0,0,0,3.173,1.051,12.07,12.07,0,0,0,1.641.141l.218,0a11.76,11.76,0,0,0,1.944-.162,6.739,6.739,0,0,0,1.318-.414,2.3,2.3,0,0,0,.691-.481,2.055,2.055,0,0,0,.379-.564l.006-.062.05-.077a2.036,2.036,0,0,0,.057-.3,1.8,1.8,0,0,0,.011-.385,1.52,1.52,0,0,0-.294-.793,1.453,1.453,0,0,0-.322-.326,1.875,1.875,0,0,0-.827-.314,1.713,1.713,0,0,0-.248-.014,8.8,8.8,0,0,0-.926.066c-.241.033-.433.056-.6.072-.353.036-.681.054-.976.054-.2,0-.4-.009-.577-.026l-.03,0a9.729,9.729,0,0,1-1.447-.318,5.4,5.4,0,0,1-.74-.286,2.781,2.781,0,0,1-.267-.145,3.8,3.8,0,0,1-.772-.659l-.031-.033-.026-.038a4.851,4.851,0,0,1-.464-.728l-.471-1.112,7.831,1.186a3.905,3.905,0,0,0,.578.048,2.225,2.225,0,0,0,.38-.03,1.026,1.026,0,0,0,.472-.187,1.512,1.512,0,0,0,.433-.83l.006-.027a4.625,4.625,0,0,0,.1-.53c.011-.12.016-.24.017-.361A5.711,5.711,0,0,0,1569.38,756.778Zm-4.447.605-.084.663-4.293-.65.085-.663a1.491,1.491,0,0,1,.137-.435,3.053,3.053,0,0,1,.639-.962,2.125,2.125,0,0,1,1.275-.611l.075-.009.074.011a2.351,2.351,0,0,1,1.814,1.1,2.4,2.4,0,0,1,.294,1.146A1.985,1.985,0,0,1,1564.934,757.384Z" transform="translate(-1440.174 -746.599)" fill="#ffbd36"/>
            <path id="Path_5327" data-name="Path 5327" d="M712.532,716.12a2.339,2.339,0,0,0-.282-.018,2.143,2.143,0,0,0-1.445.576,2.589,2.589,0,0,0-.892,1.775l-1.061,10.229a3.517,3.517,0,0,1-.526,1.725,1.4,1.4,0,0,1-1.17.578,1.949,1.949,0,0,1-.236-.015l-.05-.006-.049-.015a3.8,3.8,0,0,1-.572-.207l-.032-.016-.348-.231-.317-.18a1.738,1.738,0,0,1-.171-.081.958.958,0,0,0-.127-.053l-.028-.01-.027-.013a3.056,3.056,0,0,0-.909-.277c-.067-.006-.133-.009-.2-.009a1.636,1.636,0,0,0-1.43.8,2.047,2.047,0,0,0-.322.911,2.41,2.41,0,0,0,.549,1.713,4.9,4.9,0,0,0,2.19,1.53c.2.076.546.18,1.014.309a7.913,7.913,0,0,0,1,.173,7.308,7.308,0,0,0,.885.056,5.257,5.257,0,0,0,2.274-.483,5.037,5.037,0,0,0,2.19-2.041,8.67,8.67,0,0,0,1.087-3.588l1.055-10.174a2.818,2.818,0,0,0-.492-1.989A2.157,2.157,0,0,0,712.532,716.12Z" transform="translate(-702.33 -716.102)" fill="#ffbd36"/>
          </g>
        </g>
      </g>
    </g>
    <g id="Group_2733" data-name="Group 2733" transform="translate(757.049 531.641)">
      <path id="Path_5328" data-name="Path 5328" d="M1236.987,661.539a.62.62,0,0,1,.63-.63h2.175c1.667,0,2.7.945,2.7,2.378v.02c0,1.6-1.281,2.429-2.845,2.429h-1.413v1.718a.625.625,0,0,1-1.25,0Zm2.7,3.069c.945,0,1.535-.528,1.535-1.27v-.02c0-.833-.6-1.27-1.535-1.27h-1.453v2.561Z" transform="translate(-1236.987 -660.553)" fill="#051881"/>
      <path id="Path_5329" data-name="Path 5329" d="M1279.755,677.2v-.021c0-1.158.9-1.727,2.215-1.727a4.48,4.48,0,0,1,1.443.223v-.132c0-.762-.468-1.169-1.331-1.169a3.194,3.194,0,0,0-1.189.213.683.683,0,0,1-.193.031.512.512,0,0,1-.518-.508.536.536,0,0,1,.335-.488,4.594,4.594,0,0,1,1.728-.315,2.4,2.4,0,0,1,1.779.6,2.228,2.228,0,0,1,.579,1.656v2.642a.585.585,0,0,1-.6.589.556.556,0,0,1-.6-.518v-.2a2.18,2.18,0,0,1-1.748.783A1.714,1.714,0,0,1,1279.755,677.2Zm3.679-.386v-.366a3.408,3.408,0,0,0-1.22-.213c-.793,0-1.26.335-1.26.894v.02c0,.518.457.813,1.047.813C1282.814,677.964,1283.434,677.5,1283.434,676.816Z" transform="translate(-1273.972 -671.277)" fill="#051881"/>
      <path id="Path_5330" data-name="Path 5330" d="M1323.5,673.94a.607.607,0,0,1,.61-.62.616.616,0,0,1,.62.62v.549a1.706,1.706,0,0,1,1.351-1.179.571.571,0,0,1,.61.61.577.577,0,0,1-.488.589c-.874.152-1.474.823-1.474,2.094v1.585a.614.614,0,0,1-.62.609.6.6,0,0,1-.61-.609Z" transform="translate(-1311.801 -671.277)" fill="#051881"/>
      <path id="Path_5331" data-name="Path 5331" d="M1348.734,667.969v-2.825h-.2a.528.528,0,0,1,0-1.057h.2v-.915a.615.615,0,0,1,1.23,0v.915h.965a.528.528,0,1,1,0,1.057h-.965v2.632a.585.585,0,0,0,.66.671,2.9,2.9,0,0,0,.3-.03.518.518,0,0,1,.518.508.529.529,0,0,1-.325.478,2.451,2.451,0,0,1-.843.142A1.375,1.375,0,0,1,1348.734,667.969Z" transform="translate(-1332.99 -661.984)" fill="#051881"/>
      <path id="Path_5332" data-name="Path 5332" d="M1377.136,680.316a.524.524,0,0,1-.386-.508.5.5,0,0,1,.5-.508.627.627,0,0,1,.224.041,1.392,1.392,0,0,0,.427.071c.366,0,.559-.153.762-.569l.041-.112-1.992-4.451a.827.827,0,0,1-.071-.295.59.59,0,0,1,.61-.6.617.617,0,0,1,.6.467l1.443,3.567,1.341-3.567a.631.631,0,0,1,.589-.467.581.581,0,0,1,.589.579,1.1,1.1,0,0,1-.051.295l-1.961,4.705c-.457,1.1-.945,1.5-1.809,1.5A2.17,2.17,0,0,1,1377.136,680.316Z" transform="translate(-1357.753 -671.342)" fill="#051881"/>
      <path id="Path_5333" data-name="Path 5333" d="M1440.073,673.94a.607.607,0,0,1,.61-.62.616.616,0,0,1,.62.62v.549a1.706,1.706,0,0,1,1.351-1.179.571.571,0,0,1,.61.61.577.577,0,0,1-.488.589c-.874.152-1.473.823-1.473,2.094v1.585a.614.614,0,0,1-.62.609.6.6,0,0,1-.61-.609Z" transform="translate(-1412.61 -671.277)" fill="#051881"/>
      <path id="Path_5334" data-name="Path 5334" d="M1467.331,678.607a2.677,2.677,0,0,1-2.754-2.784V675.8a2.663,2.663,0,0,1,2.622-2.795,2.538,2.538,0,0,1,2.551,2.642.575.575,0,0,1-.579.589h-3.364a1.5,1.5,0,0,0,1.545,1.362,1.93,1.93,0,0,0,1.27-.467.457.457,0,0,1,.315-.112.484.484,0,0,1,.488.5.535.535,0,0,1-.162.376A2.754,2.754,0,0,1,1467.331,678.607Zm1.219-3.181a1.393,1.393,0,0,0-1.362-1.412,1.452,1.452,0,0,0-1.392,1.412Z" transform="translate(-1433.801 -671.016)" fill="#051881"/>
      <path id="Path_5335" data-name="Path 5335" d="M1509.146,673.679a.607.607,0,0,1,.61-.62.616.616,0,0,1,.62.62v.264a1.945,1.945,0,0,1,1.677-.935,1.839,1.839,0,0,1,1.911,2.053v2.866a.6.6,0,0,1-.61.609.607.607,0,0,1-.62-.609v-2.49c0-.833-.417-1.311-1.149-1.311a1.194,1.194,0,0,0-1.209,1.331v2.47a.615.615,0,0,1-1.23,0Z" transform="translate(-1472.343 -671.016)" fill="#051881"/>
      <path id="Path_5336" data-name="Path 5336" d="M1549.94,667.969v-2.825h-.2a.528.528,0,0,1,0-1.057h.2v-.915a.615.615,0,0,1,1.23,0v.915h.965a.528.528,0,1,1,0,1.057h-.965v2.632a.585.585,0,0,0,.661.671,2.914,2.914,0,0,0,.3-.03.518.518,0,0,1,.518.508.529.529,0,0,1-.325.478,2.45,2.45,0,0,1-.843.142A1.375,1.375,0,0,1,1549.94,667.969Z" transform="translate(-1506.987 -661.984)" fill="#051881"/>
      <path id="Path_5337" data-name="Path 5337" d="M1577.994,677.2v-.021c0-1.158.9-1.727,2.215-1.727a4.479,4.479,0,0,1,1.443.223v-.132c0-.762-.468-1.169-1.331-1.169a3.19,3.19,0,0,0-1.189.213.689.689,0,0,1-.193.031.512.512,0,0,1-.518-.508.536.536,0,0,1,.336-.488,4.592,4.592,0,0,1,1.727-.315,2.4,2.4,0,0,1,1.779.6,2.227,2.227,0,0,1,.579,1.656v2.642a.586.586,0,0,1-.6.589.555.555,0,0,1-.6-.518v-.2a2.18,2.18,0,0,1-1.748.783A1.714,1.714,0,0,1,1577.994,677.2Zm3.679-.386v-.366a3.406,3.406,0,0,0-1.219-.213c-.793,0-1.26.335-1.26.894v.02c0,.518.457.813,1.047.813C1581.053,677.964,1581.673,677.5,1581.673,676.816Z" transform="translate(-1531.88 -671.277)" fill="#051881"/>
      <path id="Path_5338" data-name="Path 5338" d="M1622.263,658.889a.605.605,0,0,1,.61-.61.614.614,0,0,1,.62.61v6.3a.615.615,0,0,1-1.23,0Z" transform="translate(-1570.163 -658.279)" fill="#051881"/>
      <path id="Path_5339" data-name="Path 5339" d="M1637.229,678.077a.472.472,0,0,1-.234-.427.492.492,0,0,1,.5-.5.537.537,0,0,1,.264.071,2.83,2.83,0,0,0,1.545.519c.529,0,.833-.224.833-.579v-.02c0-.417-.569-.559-1.2-.752-.793-.223-1.677-.549-1.677-1.575v-.02a1.712,1.712,0,0,1,1.911-1.636,3.688,3.688,0,0,1,1.687.437.522.522,0,0,1,.295.467.5.5,0,0,1-.508.5.484.484,0,0,1-.244-.061,2.923,2.923,0,0,0-1.26-.366c-.477,0-.752.224-.752.529v.02c0,.4.579.559,1.209.762.783.244,1.667.6,1.667,1.565v.02c0,1.128-.874,1.687-1.992,1.687A3.668,3.668,0,0,1,1637.229,678.077Z" transform="translate(-1582.903 -671.146)" fill="#051881"/>
    </g>
  </g>
</svg>
