<svg xmlns="http://www.w3.org/2000/svg" width="33.041" height="36.427" viewBox="0 0 33.041 36.427">
  <path id="Path_28" data-name="Path 28" d="M10.744,4.654a3.813,3.813,0,0,1,3.791-3.4h8.472a3.813,3.813,0,0,1,3.791,3.4,21.576,21.576,0,0,1,3.366.269A5.909,5.909,0,0,1,33.43,6.5a6.3,6.3,0,0,1,1.664,3.829,46.486,46.486,0,0,1,.2,5.654V26.333a46.487,46.487,0,0,1-.2,5.654,6.3,6.3,0,0,1-1.664,3.829A6.3,6.3,0,0,1,29.6,37.48a46.446,46.446,0,0,1-5.654.2H13.594a46.446,46.446,0,0,1-5.654-.2,6.3,6.3,0,0,1-3.829-1.664,6.3,6.3,0,0,1-1.664-3.829,46.458,46.458,0,0,1-.2-5.654V15.98a46.457,46.457,0,0,1,.2-5.654A6.3,6.3,0,0,1,4.111,6.5,5.908,5.908,0,0,1,7.378,4.922,21.578,21.578,0,0,1,10.744,4.654Zm0,2.542a18.935,18.935,0,0,0-2.91.226,3.405,3.405,0,0,0-1.929.872,3.82,3.82,0,0,0-.942,2.371,45.516,45.516,0,0,0-.175,5.408V26.24a45.513,45.513,0,0,0,.175,5.408,3.821,3.821,0,0,0,.942,2.371,3.82,3.82,0,0,0,2.371.942,45.5,45.5,0,0,0,5.408.175H23.854a45.5,45.5,0,0,0,5.408-.175,3.82,3.82,0,0,0,2.371-.942,3.821,3.821,0,0,0,.942-2.371,45.539,45.539,0,0,0,.175-5.408V16.073a45.542,45.542,0,0,0-.175-5.408,3.82,3.82,0,0,0-.942-2.371A3.405,3.405,0,0,0,29.7,7.422a18.937,18.937,0,0,0-2.91-.226,3.813,3.813,0,0,1-3.787,3.373H14.535A3.813,3.813,0,0,1,10.747,7.2Zm3.787-3.4a1.271,1.271,0,0,0-1.271,1.271V6.757a1.271,1.271,0,0,0,1.271,1.271h8.472a1.271,1.271,0,0,0,1.271-1.271V5.062a1.271,1.271,0,0,0-1.271-1.271ZM24.783,16.9a1.271,1.271,0,0,1-.062,1.8l-7.262,6.778a1.271,1.271,0,0,1-1.734,0l-2.9-2.711a1.271,1.271,0,0,1,1.734-1.858l2.038,1.9,6.395-5.968A1.271,1.271,0,0,1,24.783,16.9Z" transform="translate(-2.25 -1.25)" fill="#8166fa" fill-rule="evenodd"/>
</svg>
