<svg xmlns="http://www.w3.org/2000/svg" width="47.923" height="47.903" viewBox="0 0 47.923 47.903">
  <path id="auction-2" d="M29.652,30.844,27.905,32.59A1,1,0,0,0,29.319,34L44.646,18.676a1,1,0,0,0-1.412-1.412l-1.885,1.885L25.795,3.6l1.885-1.885A1,1,0,1,0,26.268.3L10.941,15.629a1,1,0,0,0,1.414,1.412L14.1,15.294l7.057,7.057L.292,43.212a1,1,0,0,0,1.414,1.412L22.57,23.76l7.083,7.083ZM35.86,16.488l-8.87,8.87-7.4-7.4,8.872-8.87,7.4,7.4Zm-4.8,12.945L28.4,26.771l8.87-8.87,2.662,2.662-8.872,8.87ZM24.383,5.01l2.662,2.662-8.872,8.87L15.511,13.88l8.87-8.87ZM46.924,45.916h-1a6,6,0,0,0-5.99-5.99H25.958a6,6,0,0,0-5.99,5.99h-1a1,1,0,1,0,0,2H46.924a1,1,0,1,0,0-2ZM25.958,41.922H39.936a4,4,0,0,1,3.994,3.994H21.965A4,4,0,0,1,25.958,41.922Z" transform="translate(0 -0.01)" fill="#3666af"/>
</svg>
