<svg xmlns="http://www.w3.org/2000/svg" width="40.583" height="36.808" viewBox="0 0 40.583 36.808">
  <path id="Path_29" data-name="Path 29" d="M4.423,19.144a17.3,17.3,0,0,1,32.018-8.67,1.416,1.416,0,1,1-2.412,1.483A14.465,14.465,0,0,0,7.254,19.14l.756-.75A1.416,1.416,0,0,1,10,20.4L6.834,23.546a1.416,1.416,0,0,1-1.994,0L1.669,20.4a1.416,1.416,0,0,1,1.994-2.01Zm31.816-1.385a1.416,1.416,0,0,1,1.99,0l3.183,3.146a1.416,1.416,0,1,1-1.99,2.014l-.774-.765A17.37,17.37,0,0,1,6.519,30.835a1.416,1.416,0,0,1,2.409-1.487,14.539,14.539,0,0,0,26.888-7.19l-.77.761a1.416,1.416,0,1,1-1.99-2.014Z" transform="translate(-1.25 -2.25)" fill="#3abfea" fill-rule="evenodd"/>
</svg>
