<svg xmlns="http://www.w3.org/2000/svg" width="40.149" height="40.248" viewBox="0 0 40.149 40.248">
  <g id="Group_105" data-name="Group 105" transform="translate(-0.75 -0.75)">
    <path id="Path_4" data-name="Path 4" d="M32.112,15.026v7.537a11.428,11.428,0,0,1-.075,1.413c-.433,5.088-3.429,7.613-8.951,7.613h-.754a1.517,1.517,0,0,0-1.206.6l-2.261,3.015a2.132,2.132,0,0,1-3.618,0l-2.261-3.015a1.74,1.74,0,0,0-1.206-.6h-.754C5.015,31.589,2,30.1,2,22.563V15.026C2,9.5,4.544,6.509,9.613,6.075A11.428,11.428,0,0,1,11.026,6h12.06Q32.1,6,32.112,15.026Z" transform="translate(0 3.537)" fill="none" stroke="#f87474" stroke-linecap="round" stroke-linejoin="round" stroke-miterlimit="10" stroke-width="2.5"/>
    <path id="Path_5" data-name="Path 5" d="M36.076,11.026v7.537q0,8.31-7.613,8.951a11.428,11.428,0,0,0,.075-1.413V18.563q0-9.016-9.026-9.026H7.453a11.428,11.428,0,0,0-1.413.075C6.473,4.544,9.47,2,14.991,2H27.05Q36.067,2,36.076,11.026Z" transform="translate(3.573)" fill="none" stroke="#f87474" stroke-linecap="round" stroke-linejoin="round" stroke-miterlimit="10" stroke-width="2.5"/>
    <path id="Path_6" data-name="Path 6" d="M13.5,13.25h.017" transform="translate(10.166 9.949)" fill="none" stroke="#f87474" stroke-linecap="round" stroke-linejoin="round" stroke-width="2.5"/>
    <path id="Path_7" data-name="Path 7" d="M10,13.25h.017" transform="translate(7.071 9.949)" fill="none" stroke="#f87474" stroke-linecap="round" stroke-linejoin="round" stroke-width="2.5"/>
    <path id="Path_8" data-name="Path 8" d="M6.5,13.25h.017" transform="translate(3.976 9.949)" fill="none" stroke="#f87474" stroke-linecap="round" stroke-linejoin="round" stroke-width="2.5"/>
  </g>
</svg>
