<svg xmlns="http://www.w3.org/2000/svg" width="19.264" height="19.5" viewBox="0 0 19.264 19.5">
  <path id="Path_182" data-name="Path 182" d="M14,10h4.764a2,2,0,0,1,1.789,2.894l-3.5,7A2,2,0,0,1,15.263,21H11.246a1.988,1.988,0,0,1-.485-.06L7,20m7-10V5a2,2,0,0,0-2-2h-.1a.9.9,0,0,0-.9.9,3.609,3.609,0,0,1-.608,2.006L7,11v9m7-10H12M7,20H5a2,2,0,0,1-2-2V12a2,2,0,0,1,2-2H7.5" transform="translate(-2.25 -2.25)" fill="none" stroke="#d5d5d5" stroke-linecap="round" stroke-linejoin="round" stroke-width="1.5"/>
</svg>
