<svg xmlns="http://www.w3.org/2000/svg" width="16.524" height="19.5" viewBox="0 0 16.524 19.5">
  <g id="Group_2644" data-name="Group 2644" transform="translate(-3.213 -1.189)">
    <path id="Path_5259" data-name="Path 5259" d="M11.5,2.91a5.441,5.441,0,0,0-5.61,5.246v2.527a3.972,3.972,0,0,1-.533,1.8l-1.075,1.67a1.645,1.645,0,0,0,1.01,2.562,20.853,20.853,0,0,0,12.408,0,1.712,1.712,0,0,0,1.01-2.562l-1.075-1.67a4.08,4.08,0,0,1-.524-1.8V8.156A5.453,5.453,0,0,0,11.5,2.91Z" transform="translate(0 0)" fill="none" stroke="#87878c" stroke-linecap="round" stroke-miterlimit="10" stroke-width="1.5"/>
    <path id="Path_5260" data-name="Path 5260" d="M13.87,3.2a6.054,6.054,0,0,0-.96-.2,6.754,6.754,0,0,0-2.74.2,1.988,1.988,0,0,1,3.7,0Z" transform="translate(-0.523)" fill="none" stroke="#87878c" stroke-linecap="round" stroke-linejoin="round" stroke-miterlimit="10" stroke-width="1.5"/>
    <path id="Path_5261" data-name="Path 5261" d="M15.02,19.06a3,3,0,0,1-6,0" transform="translate(-0.524 -2.121)" fill="none" stroke="#87878c" stroke-miterlimit="10" stroke-width="1.5"/>
  </g>
</svg>
