<svg xmlns="http://www.w3.org/2000/svg" width="39.094" height="39.163" viewBox="0 0 39.094 39.163">
  <g id="Group_106" data-name="Group 106" transform="translate(-0.752 -0.75)">
    <path id="Path_9" data-name="Path 9" d="M20.224,11.458a1.11,1.11,0,0,0-.348,0,4.738,4.738,0,1,1,.348,0Z" transform="translate(11.101 0)" fill="none" stroke="#86be75" stroke-linecap="round" stroke-linejoin="round" stroke-width="2.5"/>
    <path id="Path_10" data-name="Path 10" d="M16.995,18.555a10.328,10.328,0,0,0,7.222-1.32c2.584-1.723,2.584-4.546,0-6.269a10.393,10.393,0,0,0-7.277-1.3" transform="translate(12.442 6.247)" fill="none" stroke="#86be75" stroke-linecap="round" stroke-linejoin="round" stroke-width="2.5"/>
    <path id="Path_11" data-name="Path 11" d="M8.044,11.458a1.11,1.11,0,0,1,.348,0,4.738,4.738,0,1,0-.348,0Z" transform="translate(1.231 0)" fill="none" stroke="#86be75" stroke-linecap="round" stroke-linejoin="round" stroke-width="2.5"/>
    <path id="Path_12" data-name="Path 12" d="M11.162,18.555a10.328,10.328,0,0,1-7.222-1.32c-2.584-1.723-2.584-4.546,0-6.269a10.393,10.393,0,0,1,7.277-1.3" transform="translate(0 6.247)" fill="none" stroke="#86be75" stroke-linecap="round" stroke-linejoin="round" stroke-width="2.5"/>
    <path id="Path_13" data-name="Path 13" d="M14.224,18.928a1.11,1.11,0,0,0-.348,0,4.738,4.738,0,1,1,.348,0Z" transform="translate(6.103 6.222)" fill="none" stroke="#86be75" stroke-linecap="round" stroke-linejoin="round" stroke-width="2.5"/>
    <path id="Path_14" data-name="Path 14" d="M9.971,18.442c-2.584,1.723-2.584,4.546,0,6.269a10.406,10.406,0,0,0,10.668,0c2.584-1.723,2.584-4.546,0-6.269A10.49,10.49,0,0,0,9.971,18.442Z" transform="translate(5.022 12.481)" fill="none" stroke="#86be75" stroke-linecap="round" stroke-linejoin="round" stroke-width="2.5"/>
  </g>
</svg>
