<svg xmlns="http://www.w3.org/2000/svg" width="40.5" height="38.878" viewBox="0 0 40.5 38.878">
  <g id="Group_104" data-name="Group 104" transform="translate(-0.75 -1.18)">
    <path id="Path_1" data-name="Path 1" d="M30.5,32.83H22.9l-8.455,5.624A1.894,1.894,0,0,1,11.5,36.877V32.83c-5.7,0-9.5-3.8-9.5-9.5V11.93c0-5.7,3.8-9.5,9.5-9.5h19c5.7,0,9.5,3.8,9.5,9.5v11.4C40,29.03,36.2,32.83,30.5,32.83Z" transform="translate(0 0)" fill="none" stroke="#3666af" stroke-linecap="round" stroke-linejoin="round" stroke-miterlimit="10" stroke-width="2.5"/>
    <path id="Path_2" data-name="Path 2" d="M13.494,15.41v-.4a2.976,2.976,0,0,1,1.6-2.527,2.912,2.912,0,0,0,1.558-2.47,3.154,3.154,0,1,0-6.308,0" transform="translate(7.506 3.987)" fill="none" stroke="#3666af" stroke-linecap="round" stroke-linejoin="round" stroke-width="2.5"/>
    <path id="Path_3" data-name="Path 3" d="M12,13.75h.017" transform="translate(8.996 10.188)" fill="none" stroke="#3666af" stroke-linecap="round" stroke-linejoin="round" stroke-width="2.5"/>
  </g>
</svg>
