<svg xmlns="http://www.w3.org/2000/svg" width="31.2" height="39" viewBox="0 0 31.2 39">
  <g id="Group_154" data-name="Group 154" transform="translate(-12 -2.5)">
    <path id="Path_38" data-name="Path 38" d="M39.354,47.5c-.575-.493-1.149-1.108-1.806-1.765a10.578,10.578,0,0,1-1.355-1.929c.78-2.668,1.149-5.214.328-6.445a1.88,1.88,0,0,0-1.683-.862,1.73,1.73,0,0,0-1.724,1.067c-.657,1.478.328,4.187,1.519,6.4-.328,1.067-.739,2.217-1.232,3.489-.287.7-.616,1.4-.944,2.053-3.366,1.314-5.419,2.792-5.706,4.187a1.636,1.636,0,0,0,.657,1.683,1.843,1.843,0,0,0,1.108.411,2.06,2.06,0,0,0,.493-.082c1.56-.411,3.243-2.709,4.475-5.049a23.311,23.311,0,0,1,2.545-.821q1.663-.493,2.956-.739c1.6,1.273,2.956,1.971,4.146,1.971a2.715,2.715,0,0,0,2.176-.9,1.478,1.478,0,0,0,.411-1.888C44.978,47.133,42.72,46.886,39.354,47.5ZM28.6,54.276a.406.406,0,0,1-.328-.041c-.164-.123-.164-.205-.123-.287.082-.493,1.026-1.4,3.079-2.381C30.24,53.044,29.255,54.112,28.6,54.276Zm5.829-16.134c.041-.082.082-.205.411-.205a.615.615,0,0,1,.493.205c.369.534.328,1.888-.123,3.695C34.51,40.277,34.14,38.8,34.427,38.142Zm1.149,10.263-1.232.369c.123-.287.246-.575.369-.821.287-.78.616-1.56.9-2.381a10.246,10.246,0,0,0,.9,1.149c.369.411.739.78,1.108,1.149C36.973,48.036,36.275,48.2,35.577,48.405Zm8.662.739a1.373,1.373,0,0,1-1.108.452,4.231,4.231,0,0,1-2.217-.862C43.295,48.405,44.65,48.652,44.239,49.144Z" transform="translate(-8.675 -20.042)" fill="#f31111"/>
    <path id="Path_39" data-name="Path 39" d="M42.3,12.394,33.306,3.4a3.053,3.053,0,0,0-2.135-.9H15.038a2.981,2.981,0,0,0-2.135.9A2.981,2.981,0,0,0,12,5.538V38.462A3.031,3.031,0,0,0,15.038,41.5H40.162A3.031,3.031,0,0,0,43.2,38.462V14.528A3.053,3.053,0,0,0,42.3,12.394Zm-1.724.739H33.922a1.367,1.367,0,0,1-1.355-1.355V5.168Zm-.411,26.6H15.038a1.279,1.279,0,0,1-1.273-1.273V5.538a1.262,1.262,0,0,1,1.273-1.273H30.8v7.513a3.119,3.119,0,0,0,3.12,3.12h7.513V38.462A1.279,1.279,0,0,1,40.162,39.735Z" fill="#f31111"/>
  </g>
</svg>
