<svg xmlns="http://www.w3.org/2000/svg" width="14.595" height="11.047" viewBox="0 0 14.595 11.047">
  <g id="Group_2384" data-name="Group 2384" transform="translate(-6.476 -2.25)">
    <path id="Path_163" data-name="Path 163" d="M19.985,6.321H17a1,1,0,0,1-1-1V4a1,1,0,0,1,1-1h2.989a1,1,0,0,1,1,1V5.324A1,1,0,0,1,19.985,6.321Z" transform="translate(-0.66)" fill="none" stroke="#8B8E93" stroke-linecap="round" stroke-linejoin="round" stroke-width="1.5"/>
    <path id="Path_164" data-name="Path 164" d="M19.985,13.821H17a1,1,0,0,1-1-1V11.5a1,1,0,0,1,1-1h2.989a1,1,0,0,1,1,1v1.328A1,1,0,0,1,19.985,13.821Z" transform="translate(-0.66 -1.274)" fill="none" stroke="#8B8E93" stroke-linecap="round" stroke-linejoin="round" stroke-width="1.5"/>
    <path id="Path_165" data-name="Path 165" d="M9,5h8.114" transform="translate(-1.774 -0.34)" fill="none" stroke="#8B8E93" stroke-linecap="round" stroke-linejoin="round" stroke-miterlimit="10" stroke-width="1.5"/>
    <path id="Path_167" data-name="Path 167" d="M12.5,5v5.9" transform="translate(-0.896 -0.34)" fill="none" stroke="#8B8E93" stroke-linecap="round" stroke-linejoin="round" stroke-miterlimit="10" stroke-width="1.5"/>
    <path id="Path_168" data-name="Path 168" d="M12.5,12.5h3.736" transform="translate(-0.896 -1.614)" fill="none" stroke="#8B8E93" stroke-linecap="round" stroke-linejoin="round" stroke-miterlimit="10" stroke-width="1.5"/>
  </g>
</svg>
