<svg id="Group_160" data-name="Group 160" xmlns="http://www.w3.org/2000/svg" width="253" height="75" viewBox="0 0 253 75">
  <path id="Path_40" data-name="Path 40" d="M179.134,17.32a20.332,20.332,0,1,0,20.307,20.332A20.235,20.235,0,0,0,179.134,17.32Zm0,32.381A12.044,12.044,0,0,1,167.1,37.653a12.035,12.035,0,0,1,24.068-.251A12.1,12.1,0,0,1,179.134,49.7ZM224.261,27.11a10.6,10.6,0,0,0-10.53,10.543V56.981h-8.775V18.575h8.775V24.6a13.581,13.581,0,0,1,11.282-6.024h2.758V27.11Zm-88.248-8.535,6.518,26.608,7.27-26.608h8.524L147.295,56.981H138.52l-6.77-26.859-6.769,26.859h-8.775L105.176,18.575H113.7l7.27,26.608,6.769-26.608Zm117.33,17.571a19.871,19.871,0,0,0,10.279-17.822H255.1a11.509,11.509,0,0,1-11.532,11.547h-1.254V0h-8.775V56.981h8.775V38.908h1a3.084,3.084,0,0,1,2.506,1.255l12.285,16.818h10.529Z" transform="translate(-15.635)" fill="#10ab09"/>
  <path id="Path_41" data-name="Path 41" d="M69.195,19.267c-9.527,0-16.8,6.275-19.806,16.316a79.9,79.9,0,0,1-10.028-22.09H29.082V40.1a9.527,9.527,0,1,1-19.054,0V13.744H0V40.352a19.806,19.806,0,1,0,39.611,0V35.834a73.237,73.237,0,0,0,7.27,12.049L40.614,77.252h10.53l4.513-21.336a24.216,24.216,0,0,0,13.789,4.267A20.235,20.235,0,0,0,89.753,39.85C89.5,28.554,80.476,19.267,69.195,19.267Zm0,30.624a19.425,19.425,0,0,1-11.532-4.518l.752-4.016v-.251c.752-4.267,3.259-11.547,10.53-11.547a10.044,10.044,0,0,1,.5,20.081Z" transform="translate(0 -2.252)" fill="#10ab09"/>
</svg>
